<svg xmlns="http://www.w3.org/2000/svg" xmlns:xlink="http://www.w3.org/1999/xlink" viewBox="0 0 199.36 205.04"><defs><style>.cls-1{isolation:isolate;}.cls-2{fill:url(#Áåçûìÿííûé_ãðàäèåíò_145);}.cls-3{fill:#a731ba;}.cls-103,.cls-105,.cls-106,.cls-12,.cls-3{opacity:0.3;}.cls-10,.cls-12,.cls-13,.cls-20,.cls-26,.cls-28,.cls-29,.cls-3,.cls-45,.cls-46,.cls-47,.cls-49,.cls-50,.cls-51,.cls-52,.cls-53,.cls-54,.cls-56,.cls-57,.cls-58,.cls-59,.cls-60,.cls-61,.cls-63,.cls-65,.cls-67,.cls-68,.cls-70,.cls-71,.cls-72,.cls-77,.cls-78,.cls-79,.cls-80,.cls-81,.cls-82,.cls-84,.cls-85,.cls-86,.cls-87,.cls-89,.cls-90,.cls-93,.cls-98{mix-blend-mode:multiply;}.cls-4{fill:#3d3581;}.cls-5{fill:#5172c5;}.cls-6{fill:#519adc;}.cls-7{fill:#e56539;}.cls-8{fill:#a63839;}.cls-9{fill:#882a39;}.cls-10,.cls-83,.cls-96,.cls-97{opacity:0.61;}.cls-10{fill:url(#Áåçûìÿííûé_ãðàäèåíò_94);}.cls-11{fill:#51c7dc;}.cls-12{fill:url(#Áåçûìÿííûé_ãðàäèåíò_148);}.cls-13{fill:#ba78b5;}.cls-14{fill:ivory;}.cls-15{fill:#be658a;}.cls-16{fill:#a22e36;}.cls-17{fill:#e55c4d;}.cls-103,.cls-104,.cls-105,.cls-106,.cls-17,.cls-20,.cls-21,.cls-25,.cls-26,.cls-27,.cls-28,.cls-29,.cls-36,.cls-37,.cls-40,.cls-44,.cls-45,.cls-46,.cls-47,.cls-48,.cls-49,.cls-50,.cls-51,.cls-52,.cls-53,.cls-54,.cls-58,.cls-60,.cls-62,.cls-65,.cls-66,.cls-74,.cls-80,.cls-81,.cls-82,.cls-83,.cls-84,.cls-88,.cls-89,.cls-90,.cls-91,.cls-92{fill-rule:evenodd;}.cls-18{fill:#2e0737;}.cls-19{fill:url(#Áåçûìÿííûé_ãðàäèåíò_40);}.cls-20,.cls-60,.cls-63,.cls-79,.cls-86{fill:#cf7881;}.cls-21{fill:url(#Áåçûìÿííûé_ãðàäèåíò_110);}.cls-22{fill:url(#Áåçûìÿííûé_ãðàäèåíò_40-2);}.cls-23{fill:url(#Áåçûìÿííûé_ãðàäèåíò_159);}.cls-24{fill:url(#Áåçûìÿííûé_ãðàäèåíò_40-3);}.cls-25{fill:url(#Áåçûìÿííûé_ãðàäèåíò_167);}.cls-26,.cls-50,.cls-53,.cls-60,.cls-61,.cls-86{opacity:0.5;}.cls-26{fill:url(#Áåçûìÿííûé_ãðàäèåíò_76);}.cls-27{fill:url(#Áåçûìÿííûé_ãðàäèåíò_95);}.cls-28{fill:url(#Áåçûìÿííûé_ãðàäèåíò_86);}.cls-29{fill:url(#Áåçûìÿííûé_ãðàäèåíò_86-2);}.cls-30{fill:url(#Áåçûìÿííûé_ãðàäèåíò_16);}.cls-31{fill:url(#Áåçûìÿííûé_ãðàäèåíò_17);}.cls-32{fill:url(#Áåçûìÿííûé_ãðàäèåíò_54);}.cls-33{fill:url(#Áåçûìÿííûé_ãðàäèåíò_17-2);}.cls-34{fill:url(#Áåçûìÿííûé_ãðàäèåíò_17-3);}.cls-35{fill:url(#Áåçûìÿííûé_ãðàäèåíò_131);}.cls-36{fill:url(#Áåçûìÿííûé_ãðàäèåíò_72);}.cls-37{fill:url(#Áåçûìÿííûé_ãðàäèåíò_72-2);}.cls-38{fill:#f6ccca;}.cls-39{fill:#ffdbde;}.cls-40{fill:#d43654;}.cls-41{fill:#601a36;}.cls-42{fill:#7a4057;}.cls-43{fill:#fff;}.cls-44{fill:#d84a65;}.cls-45{fill:url(#Áåçûìÿííûé_ãðàäèåíò_76-2);}.cls-46{fill:url(#Áåçûìÿííûé_ãðàäèåíò_76-3);}.cls-47{fill:#bf7881;}.cls-48,.cls-66,.cls-73,.cls-88,.cls-94,.cls-99{opacity:0.2;}.cls-100,.cls-103,.cls-104,.cls-105,.cls-106,.cls-48,.cls-66,.cls-73,.cls-83,.cls-88,.cls-94,.cls-96,.cls-97,.cls-99{mix-blend-mode:screen;}.cls-48{fill:url(#Áåçûìÿííûé_ãðàäèåíò_78);}.cls-49{fill:url(#Áåçûìÿííûé_ãðàäèåíò_76-4);}.cls-50{fill:url(#Áåçûìÿííûé_ãðàäèåíò_79);}.cls-51{fill:url(#Áåçûìÿííûé_ãðàäèåíò_140);}.cls-52{fill:url(#Áåçûìÿííûé_ãðàäèåíò_142);}.cls-53{fill:url(#Áåçûìÿííûé_ãðàäèåíò_86-3);}.cls-54{fill:url(#Áåçûìÿííûé_ãðàäèåíò_86-4);}.cls-55{fill:url(#Áåçûìÿííûé_ãðàäèåíò_91);}.cls-56{fill:#de7881;}.cls-56,.cls-57,.cls-58,.cls-59,.cls-63,.cls-65,.cls-82,.cls-84,.cls-85,.cls-87,.cls-93{opacity:0.8;}.cls-57{fill:url(#Áåçûìÿííûé_ãðàäèåíò_102);}.cls-58{fill:url(#Áåçûìÿííûé_ãðàäèåíò_132);}.cls-59{fill:url(#Áåçûìÿííûé_ãðàäèåíò_102-2);}.cls-61,.cls-82{fill:#cf93b6;}.cls-62{fill:url(#Áåçûìÿííûé_ãðàäèåíò_138);}.cls-64{fill:url(#Áåçûìÿííûé_ãðàäèåíò_40-4);}.cls-65{fill:url(#Áåçûìÿííûé_ãðàäèåíò_102-3);}.cls-66{fill:url(#Áåçûìÿííûé_ãðàäèåíò_128);}.cls-67{fill:#cf78a2;}.cls-68,.cls-77,.cls-80,.cls-89,.cls-90,.cls-98{opacity:0.78;}.cls-68{fill:url(#Áåçûìÿííûé_ãðàäèåíò_119);}.cls-69{fill:url(#Áåçûìÿííûé_ãðàäèåíò_91-2);}.cls-70{fill:url(#Áåçûìÿííûé_ãðàäèåíò_153);}.cls-71{fill:url(#Áåçûìÿííûé_ãðàäèåíò_153-2);}.cls-72{fill:url(#Áåçûìÿííûé_ãðàäèåíò_153-3);}.cls-73{fill:url(#Áåçûìÿííûé_ãðàäèåíò_139);}.cls-74{fill:url(#Áåçûìÿííûé_ãðàäèåíò_109);}.cls-75{fill:#9a7c9e;}.cls-76{fill:#f6e0cd;}.cls-77{fill:url(#Áåçûìÿííûé_ãðàäèåíò_153-4);}.cls-78{fill:url(#Áåçûìÿííûé_ãðàäèåíò_153-5);}.cls-80{fill:url(#Áåçûìÿííûé_ãðàäèåíò_119-2);}.cls-81{fill:url(#Áåçûìÿííûé_ãðàäèåíò_153-6);}.cls-83{fill:url(#Áåçûìÿííûé_ãðàäèåíò_128-2);}.cls-84{fill:url(#Áåçûìÿííûé_ãðàäèåíò_102-4);}.cls-85{fill:url(#Áåçûìÿííûé_ãðàäèåíò_132-2);}.cls-87{fill:url(#Áåçûìÿííûé_ãðàäèåíò_132-3);}.cls-88{fill:#ffe0c3;}.cls-89{fill:url(#Áåçûìÿííûé_ãðàäèåíò_119-3);}.cls-90{fill:url(#Áåçûìÿííûé_ãðàäèåíò_119-4);}.cls-91,.cls-92{mix-blend-mode:soft-light;}.cls-91{fill:url(#Áåçûìÿííûé_ãðàäèåíò_119-5);}.cls-92{fill:url(#Áåçûìÿííûé_ãðàäèåíò_119-6);}.cls-93{fill:url(#Áåçûìÿííûé_ãðàäèåíò_102-5);}.cls-94{fill:url(#Áåçûìÿííûé_ãðàäèåíò_139-2);}.cls-95{fill:url(#Áåçûìÿííûé_ãðàäèåíò_17-4);}.cls-96{fill:url(#Áåçûìÿííûé_ãðàäèåíò_152);}.cls-97{fill:url(#Áåçûìÿííûé_ãðàäèåíò_152-2);}.cls-98{fill:url(#Áåçûìÿííûé_ãðàäèåíò_153-7);}.cls-99{fill:url(#Áåçûìÿííûé_ãðàäèåíò_139-3);}.cls-100{fill:url(#Áåçûìÿííûé_ãðàäèåíò_155);}.cls-101{fill:#66366b;}.cls-102{fill:#a22157;}.cls-103{fill:url(#Áåçûìÿííûé_ãðàäèåíò_128-3);}.cls-104{opacity:0.59;fill:url(#Áåçûìÿííûé_ãðàäèåíò_139-4);}.cls-105{fill:url(#Áåçûìÿííûé_ãðàäèåíò_172);}.cls-106{fill:url(#Áåçûìÿííûé_ãðàäèåíò_172-2);}.cls-107{fill:#59ffff;}</style><linearGradient id="Áåçûìÿííûé_ãðàäèåíò_145" x1="47.07" y1="141.77" x2="47.07" y2="25.34" gradientUnits="userSpaceOnUse"><stop offset="0" stop-color="#5e36d6"/><stop offset="0.98" stop-color="#4aa0c5"/></linearGradient><linearGradient id="Áåçûìÿííûé_ãðàäèåíò_94" x1="118.04" y1="149.12" x2="118.04" y2="129.55" gradientUnits="userSpaceOnUse"><stop offset="0.01" stop-color="#e075ba"/><stop offset="0.02" stop-color="#e17abd"/><stop offset="0.17" stop-color="#eaa3d1"/><stop offset="0.33" stop-color="#f2c4e2"/><stop offset="0.48" stop-color="#f8deef"/><stop offset="0.65" stop-color="#fcf0f8"/><stop offset="0.81" stop-color="#fefbfd"/><stop offset="1" stop-color="#fff"/></linearGradient><linearGradient id="Áåçûìÿííûé_ãðàäèåíò_148" x1="39.81" y1="121.74" x2="39.81" y2="27.47" gradientUnits="userSpaceOnUse"><stop offset="0" stop-color="#fff"/><stop offset="0.19" stop-color="#fefbfd"/><stop offset="0.35" stop-color="#fcf0f8"/><stop offset="0.52" stop-color="#f8deef"/><stop offset="0.67" stop-color="#f2c4e2"/><stop offset="0.83" stop-color="#eaa3d1"/><stop offset="0.98" stop-color="#e17abd"/><stop offset="0.99" stop-color="#e075ba"/></linearGradient><linearGradient id="Áåçûìÿííûé_ãðàäèåíò_40" x1="146.95" y1="106.75" x2="146.95" y2="54.67" gradientUnits="userSpaceOnUse"><stop offset="0" stop-color="#3e1659"/><stop offset="0.98" stop-color="#482761"/></linearGradient><linearGradient id="Áåçûìÿííûé_ãðàäèåíò_110" x1="105.34" y1="117.25" x2="105.34" y2="34.01" gradientUnits="userSpaceOnUse"><stop offset="0.03" stop-color="#cf92d1"/><stop offset="0.98" stop-color="#c5acce"/></linearGradient><linearGradient id="Áåçûìÿííûé_ãðàäèåíò_40-2" x1="122.74" y1="112.14" x2="122.74" y2="45.65" xlink:href="#Áåçûìÿííûé_ãðàäèåíò_40"/><linearGradient id="Áåçûìÿííûé_ãðàäèåíò_159" x1="106.31" y1="143.48" x2="173.53" y2="143.48" gradientUnits="userSpaceOnUse"><stop offset="0" stop-color="#c75634"/><stop offset="0.98" stop-color="#ff7e27"/></linearGradient><linearGradient id="Áåçûìÿííûé_ãðàäèåíò_40-3" x1="76.92" y1="134.6" x2="76.92" y2="35.87" xlink:href="#Áåçûìÿííûé_ãðàäèåíò_40"/><linearGradient id="Áåçûìÿííûé_ãðàäèåíò_167" x1="121.11" y1="47.75" x2="121.11" y2="6.74" gradientUnits="userSpaceOnUse"><stop offset="0" stop-color="#bf7e8a"/><stop offset="0.4" stop-color="#fd9062"/><stop offset="0.99" stop-color="#fc7b54"/></linearGradient><linearGradient id="Áåçûìÿííûé_ãðàäèåíò_76" x1="106.75" y1="28.52" x2="134.58" y2="28.52" gradientUnits="userSpaceOnUse"><stop offset="0.01" stop-color="#e897aa"/><stop offset="1" stop-color="#fff"/></linearGradient><linearGradient id="Áåçûìÿííûé_ãðàäèåíò_95" x1="110.35" y1="60.47" x2="110.35" y2="48.76" gradientTransform="translate(-9.96 -23.15) rotate(-4.36)" gradientUnits="userSpaceOnUse"><stop offset="0" stop-color="#fd9e6c"/><stop offset="0.99" stop-color="#fc7b54"/></linearGradient><linearGradient id="Áåçûìÿííûé_ãðàäèåíò_86" x1="103.68" y1="25.77" x2="103.68" y2="19.84" gradientUnits="userSpaceOnUse"><stop offset="0" stop-color="#fff"/><stop offset="0.99" stop-color="#e897aa"/></linearGradient><linearGradient id="Áåçûìÿííûé_ãðàäèåíò_86-2" x1="104.75" y1="25.77" x2="104.75" y2="20.79" xlink:href="#Áåçûìÿííûé_ãðàäèåíò_86"/><linearGradient id="Áåçûìÿííûé_ãðàäèåíò_16" x1="129.84" y1="21.31" x2="135.97" y2="21.31" gradientUnits="userSpaceOnUse"><stop offset="0" stop-color="#610039"/><stop offset="0.98" stop-color="#9f3d2e"/></linearGradient><linearGradient id="Áåçûìÿííûé_ãðàäèåíò_17" x1="121.26" y1="47.63" x2="132.19" y2="47.63" gradientTransform="translate(-8.43 -19.61) rotate(-3.93)" gradientUnits="userSpaceOnUse"><stop offset="0.02" stop-color="#9f3d2e"/><stop offset="1" stop-color="#610039"/></linearGradient><linearGradient id="Áåçûìÿííûé_ãðàäèåíò_54" x1="120.86" y1="22.81" x2="120.86" y2="6.35" gradientUnits="userSpaceOnUse"><stop offset="0.02" stop-color="#d95b4e"/><stop offset="1" stop-color="#831639"/></linearGradient><linearGradient id="Áåçûìÿííûé_ãðàäèåíò_17-2" x1="119.26" y1="1.06" x2="119.27" y2="1.06" gradientTransform="matrix(1, 0, 0, 1, 0, 0)" xlink:href="#Áåçûìÿííûé_ãðàäèåíò_17"/><linearGradient id="Áåçûìÿííûé_ãðàäèåíò_17-3" x1="106.16" y1="14.52" x2="142.19" y2="14.52" gradientTransform="matrix(1, 0, 0, 1, 0, 0)" xlink:href="#Áåçûìÿííûé_ãðàäèåíò_17"/><linearGradient id="Áåçûìÿííûé_ãðàäèåíò_131" x1="72.73" y1="145.27" x2="118.76" y2="145.27" gradientUnits="userSpaceOnUse"><stop offset="0" stop-color="#ff8934"/><stop offset="0.4" stop-color="#ff8c34"/><stop offset="0.64" stop-color="#fd9435"/><stop offset="0.83" stop-color="#faa236"/><stop offset="0.98" stop-color="#f7b338"/></linearGradient><linearGradient id="Áåçûìÿííûé_ãðàäèåíò_72" x1="100.55" y1="195.56" x2="134.4" y2="195.56" gradientUnits="userSpaceOnUse"><stop offset="0" stop-color="#ba0039"/><stop offset="0.98" stop-color="#ff164c"/></linearGradient><linearGradient id="Áåçûìÿííûé_ãðàäèåíò_72-2" x1="155.52" y1="194.75" x2="199.36" y2="194.75" xlink:href="#Áåçûìÿííûé_ãðàäèåíò_72"/><linearGradient id="Áåçûìÿííûé_ãðàäèåíò_76-2" x1="127.22" y1="36.51" x2="127.22" y2="34" xlink:href="#Áåçûìÿííûé_ãðàäèåíò_76"/><linearGradient id="Áåçûìÿííûé_ãðàäèåíò_76-3" x1="123.61" y1="32.59" x2="125.77" y2="32.59" xlink:href="#Áåçûìÿííûé_ãðàäèåíò_76"/><linearGradient id="Áåçûìÿííûé_ãðàäèåíò_78" x1="128.85" y1="35.9" x2="128.85" y2="23.19" gradientUnits="userSpaceOnUse"><stop offset="0" stop-color="#ffc792"/><stop offset="0.22" stop-color="#fc9f64"/><stop offset="0.47" stop-color="#fa7a39"/><stop offset="0.69" stop-color="#f85f1a"/><stop offset="0.87" stop-color="#f64e07"/><stop offset="1" stop-color="#f64800"/></linearGradient><linearGradient id="Áåçûìÿííûé_ãðàäèåíò_76-4" x1="119.76" y1="34.18" x2="122.03" y2="34.18" xlink:href="#Áåçûìÿííûé_ãðàäèåíò_76"/><linearGradient id="Áåçûìÿííûé_ãðàäèåíò_79" x1="107.67" y1="43.13" x2="125.77" y2="43.13" gradientUnits="userSpaceOnUse"><stop offset="0" stop-color="#ffe9ea"/><stop offset="0.99" stop-color="#de5777"/></linearGradient><linearGradient id="Áåçûìÿííûé_ãðàäèåíò_140" x1="107.78" y1="9.86" x2="131.48" y2="9.86" gradientUnits="userSpaceOnUse"><stop offset="0" stop-color="#ffe9ea"/><stop offset="0.99" stop-color="#bd5777"/></linearGradient><linearGradient id="Áåçûìÿííûé_ãðàäèåíò_142" x1="112.53" y1="9.18" x2="137.61" y2="9.18" gradientUnits="userSpaceOnUse"><stop offset="0.01" stop-color="#bd5777"/><stop offset="1" stop-color="#ffe9ea"/></linearGradient><linearGradient id="Áåçûìÿííûé_ãðàäèåíò_86-3" x1="120.85" y1="29.06" x2="120.85" y2="18.82" xlink:href="#Áåçûìÿííûé_ãðàäèåíò_86"/><linearGradient id="Áåçûìÿííûé_ãðàäèåíò_86-4" x1="132.08" y1="30.21" x2="132.08" y2="22.22" xlink:href="#Áåçûìÿííûé_ãðàäèåíò_86"/><linearGradient id="Áåçûìÿííûé_ãðàäèåíò_91" x1="122.59" y1="94.96" x2="122.59" y2="46.8" gradientUnits="userSpaceOnUse"><stop offset="0" stop-color="#462060"/><stop offset="0.98" stop-color="#624577"/></linearGradient><linearGradient id="Áåçûìÿííûé_ãðàäèåíò_102" x1="105.58" y1="116.61" x2="105.58" y2="47.2" gradientUnits="userSpaceOnUse"><stop offset="0" stop-color="#ffe9ea"/><stop offset="0.99" stop-color="#b37093"/></linearGradient><linearGradient id="Áåçûìÿííûé_ãðàäèåíò_132" x1="72.73" y1="140.35" x2="116.94" y2="140.35" gradientUnits="userSpaceOnUse"><stop offset="0.01" stop-color="#b37093"/><stop offset="1" stop-color="#ffe9ea"/></linearGradient><linearGradient id="Áåçûìÿííûé_ãðàäèåíò_102-2" x1="102.55" y1="80.71" x2="102.55" y2="56.03" xlink:href="#Áåçûìÿííûé_ãðàäèåíò_102"/><linearGradient id="Áåçûìÿííûé_ãðàäèåíò_138" x1="99.65" y1="106.75" x2="139.28" y2="106.75" gradientUnits="userSpaceOnUse"><stop offset="0.01" stop-color="#fc7b54"/><stop offset="1" stop-color="#fd9e6c"/></linearGradient><linearGradient id="Áåçûìÿííûé_ãðàäèåíò_40-4" x1="81.46" y1="115.12" x2="81.46" y2="54.67" xlink:href="#Áåçûìÿííûé_ãðàäèåíò_40"/><linearGradient id="Áåçûìÿííûé_ãðàäèåíò_102-3" x1="104.51" y1="56.03" x2="104.51" y2="34.01" xlink:href="#Áåçûìÿííûé_ãðàäèåíò_102"/><linearGradient id="Áåçûìÿííûé_ãðàäèåíò_128" x1="58.93" y1="46.52" x2="87.51" y2="46.52" gradientUnits="userSpaceOnUse"><stop offset="0" stop-color="#ffc792"/><stop offset="0.08" stop-color="#e0af80"/><stop offset="0.28" stop-color="#9d7b5a"/><stop offset="0.46" stop-color="#654f3a"/><stop offset="0.63" stop-color="#392d21"/><stop offset="0.78" stop-color="#1a140f"/><stop offset="0.91" stop-color="#070504"/><stop offset="1"/></linearGradient><linearGradient id="Áåçûìÿííûé_ãðàäèåíò_119" x1="91.05" y1="94.96" x2="91.05" y2="46.1" gradientUnits="userSpaceOnUse"><stop offset="0.01" stop-color="#b37aaa"/><stop offset="1" stop-color="#fff"/></linearGradient><linearGradient id="Áåçûìÿííûé_ãðàäèåíò_91-2" x1="92.79" y1="94.96" x2="92.79" y2="35.87" xlink:href="#Áåçûìÿííûé_ãðàäèåíò_91"/><linearGradient id="Áåçûìÿííûé_ãðàäèåíò_153" x1="68.07" y1="93.31" x2="85.51" y2="93.31" gradientUnits="userSpaceOnUse"><stop offset="0" stop-color="#fff"/><stop offset="0.99" stop-color="#b37aaa"/></linearGradient><linearGradient id="Áåçûìÿííûé_ãðàäèåíò_153-2" x1="58.31" y1="85.74" x2="72.3" y2="61.5" xlink:href="#Áåçûìÿííûé_ãðàäèåíò_153"/><linearGradient id="Áåçûìÿííûé_ãðàäèåíò_153-3" x1="62.05" y1="111.34" x2="97.89" y2="111.34" xlink:href="#Áåçûìÿííûé_ãðàäèåíò_153"/><linearGradient id="Áåçûìÿííûé_ãðàäèåíò_139" x1="71.76" y1="94.24" x2="105.84" y2="94.24" gradientUnits="userSpaceOnUse"><stop offset="0"/><stop offset="0.09" stop-color="#070504"/><stop offset="0.22" stop-color="#1a140f"/><stop offset="0.37" stop-color="#392d21"/><stop offset="0.54" stop-color="#654f3a"/><stop offset="0.72" stop-color="#9d7b5a"/><stop offset="0.92" stop-color="#e0af80"/><stop offset="1" stop-color="#ffc792"/></linearGradient><radialGradient id="Áåçûìÿííûé_ãðàäèåíò_109" cx="166.31" cy="-3463.19" r="21.53" gradientTransform="translate(0 6256.19) scale(1 1.78)" gradientUnits="userSpaceOnUse"><stop offset="0.03" stop-color="#e3bbd1"/><stop offset="0.98" stop-color="#c5acce"/></radialGradient><linearGradient id="Áåçûìÿííûé_ãðàäèåíò_153-4" x1="121.7" y1="91.55" x2="121.7" y2="46.8" xlink:href="#Áåçûìÿííûé_ãðàäèåíò_153"/><linearGradient id="Áåçûìÿííûé_ãðàäèåíò_153-5" x1="72.69" y1="128.72" x2="72.69" y2="111.94" xlink:href="#Áåçûìÿííûé_ãðàäèåíò_153"/><linearGradient id="Áåçûìÿííûé_ãðàäèåíò_119-2" x1="92.79" y1="90.73" x2="92.79" y2="70.69" xlink:href="#Áåçûìÿííûé_ãðàäèåíò_119"/><linearGradient id="Áåçûìÿííûé_ãðàäèåíò_153-6" x1="77.41" y1="90.16" x2="77.41" y2="58.23" xlink:href="#Áåçûìÿííûé_ãðàäèåíò_153"/><linearGradient id="Áåçûìÿííûé_ãðàäèåíò_128-2" x1="112.39" y1="169.21" x2="112.39" y2="132.81" xlink:href="#Áåçûìÿííûé_ãðàäèåíò_128"/><linearGradient id="Áåçûìÿííûé_ãðàäèåíò_102-4" x1="113.05" y1="132.14" x2="116.99" y2="132.14" xlink:href="#Áåçûìÿííûé_ãðàäèåíò_102"/><linearGradient id="Áåçûìÿííûé_ãðàäèåíò_132-2" x1="163.18" y1="174.95" x2="163.18" y2="115.87" xlink:href="#Áåçûìÿííûé_ãðàäèåíò_132"/><linearGradient id="Áåçûìÿííûé_ãðàäèåíò_132-3" x1="149.85" y1="127.93" x2="149.85" y2="118.9" xlink:href="#Áåçûìÿííûé_ãðàäèåíò_132"/><linearGradient id="Áåçûìÿííûé_ãðàäèåíò_119-3" x1="100.55" y1="195.51" x2="134.25" y2="195.51" xlink:href="#Áåçûìÿííûé_ãðàäèåíò_119"/><linearGradient id="Áåçûìÿííûé_ãðàäèåíò_119-4" x1="154.92" y1="194.94" x2="199.36" y2="194.94" xlink:href="#Áåçûìÿííûé_ãðàäèåíò_119"/><linearGradient id="Áåçûìÿííûé_ãðàäèåíò_119-5" x1="158.94" y1="184.09" x2="169.08" y2="184.09" xlink:href="#Áåçûìÿííûé_ãðàäèåíò_119"/><linearGradient id="Áåçûìÿííûé_ãðàäèåíò_119-6" x1="105.1" y1="183.14" x2="118.76" y2="183.14" xlink:href="#Áåçûìÿííûé_ãðàäèåíò_119"/><linearGradient id="Áåçûìÿííûé_ãðàäèåíò_102-5" x1="104.51" y1="64.69" x2="121.7" y2="64.69" xlink:href="#Áåçûìÿííûé_ãðàäèåíò_102"/><linearGradient id="Áåçûìÿííûé_ãðàäèåíò_139-2" x1="91.85" y1="55.58" x2="91.85" y2="35.87" xlink:href="#Áåçûìÿííûé_ãðàäèåíò_139"/><linearGradient id="Áåçûìÿííûé_ãðàäèåíò_17-4" x1="123.52" y1="15.56" x2="131.48" y2="15.56" gradientTransform="matrix(1, 0, 0, 1, 0, 0)" xlink:href="#Áåçûìÿííûé_ãðàäèåíò_17"/><linearGradient id="Áåçûìÿííûé_ãðàäèåíò_152" x1="106.31" y1="194.6" x2="133.79" y2="194.6" gradientUnits="userSpaceOnUse"><stop offset="0"/><stop offset="0.09" stop-color="#070400"/><stop offset="0.22" stop-color="#1a0e01"/><stop offset="0.37" stop-color="#392002"/><stop offset="0.54" stop-color="#653804"/><stop offset="0.72" stop-color="#9d5707"/><stop offset="0.92" stop-color="#e07c0a"/><stop offset="1" stop-color="#ff8d0b"/></linearGradient><linearGradient id="Áåçûìÿííûé_ãðàäèåíò_152-2" x1="168.79" y1="193.51" x2="199.36" y2="193.51" xlink:href="#Áåçûìÿííûé_ãðàäèåíò_152"/><linearGradient id="Áåçûìÿííûé_ãðàäèåíò_153-7" x1="91.85" y1="50.15" x2="98.94" y2="50.15" xlink:href="#Áåçûìÿííûé_ãðàäèåíò_153"/><linearGradient id="Áåçûìÿííûé_ãðàäèåíò_139-3" x1="131.07" y1="49.67" x2="140.61" y2="49.67" xlink:href="#Áåçûìÿííûé_ãðàäèåíò_139"/><radialGradient id="Áåçûìÿííûé_ãðàäèåíò_155" cx="164.84" cy="92.01" r="12.4" gradientTransform="translate(113.34 -89.61) rotate(45)" xlink:href="#Áåçûìÿííûé_ãðàäèåíò_128"/><linearGradient id="Áåçûìÿííûé_ãðàäèåíò_128-3" x1="167.84" y1="170.9" x2="167.84" y2="118.72" xlink:href="#Áåçûìÿííûé_ãðàäèåíò_128"/><linearGradient id="Áåçûìÿííûé_ãðàäèåíò_139-4" x1="131.42" y1="7.17" x2="131.42" y2="4.63" xlink:href="#Áåçûìÿííûé_ãðàäèåíò_139"/><linearGradient id="Áåçûìÿííûé_ãðàäèåíò_172" x1="67.48" y1="56.03" x2="67.48" y2="50.15" gradientUnits="userSpaceOnUse"><stop offset="0"/><stop offset="0.12" stop-color="#070406"/><stop offset="0.29" stop-color="#1a1018"/><stop offset="0.5" stop-color="#392334"/><stop offset="0.73" stop-color="#653e5b"/><stop offset="0.98" stop-color="#9c608d"/><stop offset="1" stop-color="#a16392"/></linearGradient><linearGradient id="Áåçûìÿííûé_ãðàäèåíò_172-2" x1="77.31" y1="97.72" x2="77.31" y2="86.53" xlink:href="#Áåçûìÿííûé_ãðàäèåíò_172"/></defs><g class="cls-1"><g id="Layer_2" data-name="Layer 2"><g id="objects"><path class="cls-2" d="M35.14,141.77,3.47,38.23S33.15,9,78,38.65L90.67,141.77Z"/><path class="cls-3" d="M26.84,114.63s5.95,14.3,17.31,16.9,35,.35,39.4-3.74,1.76-29.74,1.76-29.74l3.86,31.5L34.7,140.33Z"/><polygon class="cls-4" points="3.47 38.23 0 43.94 27.88 141.77 35.14 141.77 3.47 38.23"/><path class="cls-4" d="M27.88,141.77l1.31,7.35H82l-1.27-17.56S66.12,130.5,27.88,141.77Z"/><polygon class="cls-5" points="80.75 131.56 155.33 129.55 152.98 149.12 82.02 149.12 80.75 131.56"/><path class="cls-6" d="M35.14,139.42s96.94-28.9,120.19-9.87L80.78,132S53.79,134.11,35.14,139.42Z"/><polygon class="cls-7" points="143.95 149.12 149.1 149.12 143.95 202.49 142.12 202.49 143.95 149.12"/><polygon class="cls-7" points="84.73 149.12 87.07 202.49 88.92 202.49 89.95 149.12 84.73 149.12"/><polygon class="cls-8" points="32.92 149.12 26.84 202.49 28.41 202.49 38.01 149.12 32.92 149.12"/><polygon class="cls-8" points="78.07 149.12 70.42 202.49 71.98 202.49 83.16 149.12 78.07 149.12"/><polygon class="cls-8" points="148.73 151.92 143.59 156.77 143.95 149.12 149.1 149.12 148.73 151.92"/><polygon class="cls-8" points="89.83 153.48 85.2 156.93 84.73 149.12 89.95 149.12 89.83 153.48"/><polygon class="cls-9" points="36.69 154.49 84.9 151.08 84.73 149.12 38.01 149.12 36.69 154.49"/><polygon class="cls-8" points="89.9 150.95 143.82 151.81 143.95 149.12 89.95 149.12 89.9 150.95"/><polygon class="cls-9" points="36.86 149.12 27.76 202.49 26.84 202.49 32.92 149.12 36.86 149.12"/><polygon class="cls-9" points="84.73 149.12 83.55 149.12 86.71 202.49 87.07 202.49 84.73 149.12"/><polygon class="cls-9" points="143.82 151.81 142.12 202.49 141.78 202.49 142.12 151.81 143.82 151.81"/><path class="cls-10" d="M80.75,131.56S92.89,144.28,118,145.75s37.29-16.2,37.29-16.2L153,149.12H82Z"/><path class="cls-11" d="M0,43.94l3.82-4.55S33.19,9.49,78,38.65c0,0-39-30.55-74.57-.42Z"/><path class="cls-12" d="M36.37,121.74,6,40.14s26.81-26,67.66-3.47c0,0-36-4.46-45.9,12.25S36.37,121.74,36.37,121.74Z"/><path class="cls-3" d="M78,38.65s-6,2.08-5.83,10.59Z"/><path class="cls-3" d="M3.82,39.39s8,3.5,9.68,10.38Z"/><path class="cls-13" d="M38,138.59S36.09,86.3,51.34,70.53s29.41-15.8,29.41-15.8l.71,74S48.13,135.42,38,138.59Z"/><polygon class="cls-13" points="91.05 129.97 94.63 131.54 93.76 151.01 97.89 151.01 99.4 128.72 91.05 129.97"/><path class="cls-13" d="M118,126.79s20.88,1.37,26.54,2.76L144,149.12h6l1.14-26.06Z"/><polygon class="cls-14" points="167.64 186.15 169.08 183.5 166.5 182.12 166.92 180.17 165.87 180.61 165.27 176.73 166.3 179.87 167.84 179.96 167.18 182.12 170.12 183.45 167.64 186.15"/><polygon class="cls-14" points="163.14 117.25 174.77 168.93 165 172.7 163.14 117.25"/><path class="cls-14" d="M76,44.28,90.14,36.9l.91-1L96,35l.87-1.72,2,0,4.1-3.57s-6.21-3.95-5-9.49,8.81-3.55,8.81-3.55l2.4-6.21-1.39-1-2.2.39s2-4.67,14-5.23A5.82,5.82,0,0,1,118.86,0a7.65,7.65,0,0,0,5.37,4.2c3.93.77,11.47-.71,13.38.43s-1.31,5.23-1.31,5.23l3.51-1.54s4.95,7.27,2.67,12.62-3.95,6.38-3.95,6.38,4.59-5.36,2.78-12.11S133.75,12,133.75,12s-11.57-3.22-13-3.31S115,13.05,115,13.05l-8.42,19.42L95.39,53.79Z"/><path class="cls-15" d="M139.75,26.47l-5.85-1.56.16-.68s4.67.36,5.32,1.09S139.75,26.47,139.75,26.47Z"/><polygon class="cls-16" points="173.53 168.93 159.08 175.94 165.46 169.83 173.53 168.93"/><path class="cls-16" d="M104.78,178.93s8.91-7.62,14-10.17L107.71,163l-3.78,7.88-1.84,6.89Z"/><path class="cls-17" d="M157.64,175.21s2,9.32,1.06,14.24l2.43,2,6.21-4.55s-2.81-9.61-2.28-16Z"/><polygon class="cls-18" points="157.64 184.07 166.92 180.17 166.5 182.12 169.08 183.5 167.64 186.15 168.47 186.84 161.13 191.42 158.7 189.45 158.48 187.18 157.64 186.19 158.1 185.06 157.64 184.07"/><path class="cls-19" d="M139.28,54.67S158,74,164.84,94.65c0,0-14.31,11.6-22.15,12.1,0,0,1.7-7.78-7.21-8l3.8-6.81-1.81-1.14,1.81-1.59s-5-8.63-10.22-10.34C129.06,78.86,130.42,63.63,139.28,54.67Z"/><path class="cls-17" d="M104.75,28.76a31.84,31.84,0,0,1-7.89,7.34s7.67,16.42,19.08,20.67c0,0,6-6.13,7-9.08l-5.62-19.54-9.79-.67Z"/><path class="cls-20" d="M104.26,29.39a32.4,32.4,0,0,0,.49,11c1.31,5.85,10.8,15.75,10.8,15.75A34.37,34.37,0,0,0,123,47.69L106.75,28l-2,.72Z"/><path class="cls-21" d="M127,47.2c0,4.94-1.82,14.57-5.19,25.62-1,3.25-2.11,6.61-3.35,10-3.84,10.56-13.63,29.3-13.63,29.3-5.85,1-14.76,3.33-18.94,4.47l-2.3.64s.06-.09.17-.29c1.16-2,8-14.13,11.68-25.69.54-1.7,1-3.38,1.38-5C100,72.39,96,37,96,37c.72-1.24,1.55-2.94,1.55-2.94l1.26.74-.53.51c4.55,9.59,17.26,20.85,17.26,20.85,2.5-1.44,7.43-8.42,7.43-8.42A12.05,12.05,0,0,0,127,47.2Z"/><path class="cls-22" d="M107.6,112s1.47-11.25,6.92-18.4,14.54-14.77,14.54-14.77,3.64-17.61,10.22-24.19l1.33-2-10.54-7-3,1.55s-4.4,26.9-8.54,35.64-11.59,21.92-13.63,29.3Z"/><path class="cls-23" d="M116.89,126.79s21.26-1.82,30.91,0v1.14H149a90.89,90.89,0,0,0-1.19,11.36c.06,3.74,9.84,37.44,9.84,37.44l7.82-4.28V170.9l8.07-2s-7.1-33.47-8.62-40.51-1.66-12.71-2.42-14-34.6-7.24-56.18-2.32Z"/><path class="cls-18" d="M97.89,115s3.9-2.44,7.45-14.33v-1.3S99.08,102.79,97.89,115Z"/><path class="cls-24" d="M96.61,35.87a234.43,234.43,0,0,0-32.34,14l-5.34,1.59s-.17,1.42,1.65,3.24c0,0,8.1,42.47,6.58,52s-6.66,22-6.66,22l-6.06,5.81s10.76.55,16.43-1.42,22.83-29.8,27-47.87S96.61,35.87,96.61,35.87Z"/><path class="cls-25" d="M135,40.08c.06.73-1.79,3.32-4.54,5.3a11.3,11.3,0,0,1-6.88,2.36c-6-.28-15.29-7.72-15.94-9.16-.42-.94-1-5.35-.92-10.54a58.67,58.67,0,0,1,.66-8.53c1.28-8,4.77-12.27,4.77-12.27,15.41-2.48,22,5.07,22,5.07l.12.28,0,.12.15.41,0,.11.06.2a34.32,34.32,0,0,1,.91,7.11,16.52,16.52,0,0,0-1.82,6.08C133.32,30.14,134.91,38.83,135,40.08Z"/><path class="cls-26" d="M134.58,13.43h0a13,13,0,0,1-4.06.32c-1.53-.27-8.53-3-12.18-1.93s-6.61,10.77-6.64,13.09,2.45,4.64,2.45,4.64a40.44,40.44,0,0,0-.49,10.05c.55,4.37,7.9,7.55,10.41,7.65s6.45-1.9,6.45-1.9l0,0a11.3,11.3,0,0,1-6.88,2.36c-6-.28-15.29-7.72-15.94-9.16-.42-.94-1-5.35-.92-10.54.48-.41,1.85-1.82,2.72-5.23a49.38,49.38,0,0,0,1.15-9.71l1.22-3.22s9.2-1.21,14.8-.18c5.43,1,7.52,2.79,7.65,2.89h0l0,.11.15.41,0,.11Z"/><path class="cls-27" d="M109.46,21.33s-2.78-6.11-7.84-3.67-2.35,8.72.81,10.53S108.08,27,108.08,27A10.49,10.49,0,0,0,109.46,21.33Z"/><path class="cls-28" d="M107.77,24s-2.17-3.43-5.17-4-3,2.44-3,2.44A2.34,2.34,0,0,1,102,20.77a4.58,4.58,0,0,0,0,3.61,2.35,2.35,0,0,0,2.14,1.39s.39-2.79,1.24-3.24S107.77,24,107.77,24Z"/><path class="cls-29" d="M104.65,20.79A2.81,2.81,0,0,0,102,24.38a2,2,0,0,0,2.14,1.39s.11-2.6,1.1-3.14,2.33,1,2.33,1A8.87,8.87,0,0,0,104.65,20.79Z"/><path class="cls-30" d="M129.84,23.28A9.79,9.79,0,0,1,132,20.37l-.28.62A5.8,5.8,0,0,1,136,19.33a7.7,7.7,0,0,1-1.35,3.14A7.5,7.5,0,0,0,129.84,23.28Z"/><path class="cls-31" d="M124.76,20.79a4.93,4.93,0,0,0,1.88-3l-1,1.34a3.07,3.07,0,0,0,.25-2s-6.29-.67-10,3.74c0,0,5.33-1.09,8.65-.37Z"/><path class="cls-32" d="M107.55,18.69a9.46,9.46,0,0,1,1.92,4.12l1.82-1s-.29-3.53.39-4.69a10.59,10.59,0,0,1,2.46-2.41s.55-4.2,3.73-4.94,13.35,2,13.35,2l2.95.51s-7.1-7.74-22-5.57A24.33,24.33,0,0,0,107.55,18.69Z"/><path class="cls-33" d="M119.27,1.16a2.07,2.07,0,0,1,0-.21A1.48,1.48,0,0,0,119.27,1.16Z"/><path class="cls-34" d="M138.13,27.78c1-1.07,6.91-7.86.3-16L132,13.05h0l-.51.1a22,22,0,0,0-11.8-2.77,31.7,31.7,0,0,1-11.82-1.52h-.09l-1.61.63A19.29,19.29,0,0,1,113.7,6a6.23,6.23,0,0,1,.62-.15l.07,0a28.85,28.85,0,0,1,8.84-.48s-3.61-1.12-3.94-4c.14.88,1,3.09,5.51,3.57,5.71.6,10-1.08,12.24.46a1.31,1.31,0,0,1,.57,1.27h0c-.14,1.87-2.91,4.59-3.16,4.83.3-.17,4.08-2.35,5.23-2.11S145.47,20.64,138.13,27.78Z"/><path class="cls-17" d="M105.14,175.4a115.21,115.21,0,0,1-1.21,16l9.21-3.18s-.85-13.75,0-20.79c0,0-5.68-.74-7.74,1.14Z"/><path class="cls-18" d="M103.56,182s7.76-5.15,10.58-5.26V181l4.62,1.37-4.27,3.25-.35,2.65-10.58,5.13v-5l-.73-1.29,1.32-2.54Z"/><path class="cls-35" d="M72.73,131.93l1.59.88s14.88-3.12,24-3.52l-1.82,5.31s1.61,29.79,5.09,43.87l3.17.46-2.69-1.14,6.44-6.48-2.52-2.1a55.74,55.74,0,0,1,12.75-.45s-1.85-17.78-1.85-23.34.08-31.82-.38-32.59-9.12-1.56-13.1-1.07-19.32,4.85-19.32,4.85S77.09,127.94,72.73,131.93Z"/><path class="cls-36" d="M103.56,189.75l-1.26.53.63,1.67L100.55,205H134.4a25.7,25.7,0,0,0-.61-5.07s-12.48-7.13-19.38-13.77c0,0-7-1.45-9.16,5.22H104Z"/><path class="cls-37" d="M168.47,186.83s22.83,9.47,30.89,12.08v3.75l-43.84-.91,2.84-11.28L158,188.8l.53-.15,2.83,2S165.33,187.25,168.47,186.83Z"/><path class="cls-38" d="M134.25,202.66s-18.82.85-25,.68-8.13-1.69-8.13-1.69l-.62,3.39H134.4Z"/><path class="cls-38" d="M156.22,199s26.64,3.13,43.14,2.66v1.54l-44.44-.54Z"/><path class="cls-39" d="M116.42,24.49c-.7.91,2.16,5.45,6.08,3.55,0,0,2.27-3.87.28-4.94S117.3,23.35,116.42,24.49Z"/><path class="cls-39" d="M129.6,26.47s2-1.92,3.3-2,.53,3.48.25,4.16-3.12,0-3.12,0Z"/><path class="cls-40" d="M129.6,26.47s2-1.87,4-1.26a1,1,0,0,0-.93-1C131.74,24.15,129.6,26.47,129.6,26.47Z"/><path class="cls-40" d="M116.42,24.49s4.75-3.1,7.18,0c0,0,.36-2-2.69-2.11A5.93,5.93,0,0,0,116.42,24.49Z"/><path class="cls-41" d="M129.6,26.47a14.19,14.19,0,0,1,4.76-.91l-.73-.35S131.84,24.51,129.6,26.47Z"/><path class="cls-41" d="M116.42,24.49s3.35-2,7.81.42l-.63-.8S120.74,21.56,116.42,24.49Z"/><path class="cls-42" d="M117.8,27.38s3.36-3.23,4.7.66A4,4,0,0,1,117.8,27.38Z"/><path class="cls-42" d="M130,28.65s1.88-3.2,2.87.21A3.62,3.62,0,0,1,130,28.65Z"/><path class="cls-43" d="M117.8,26.12s.45,1.09,1,1.36C118.8,27.48,119.21,26.38,117.8,26.12Z"/><path class="cls-43" d="M130.51,28.27s-.57-.05-.48-1A2.5,2.5,0,0,1,130.51,28.27Z"/><path class="cls-44" d="M117,26.47a8,8,0,0,0,2.43,2.1,2.62,2.62,0,0,0,2.78-.39S119.47,29.67,117,26.47Z"/><path class="cls-44" d="M130,28.65s2,1.58,3,.11A3.14,3.14,0,0,1,130,28.65Z"/><path class="cls-45" d="M123,34a5.49,5.49,0,0,1,2.76.8c.85.74,4.75,1.41,5.73,1.07a6.89,6.89,0,0,1-3.46.63c-2.1-.11-2-1-3.26-1.56A8.36,8.36,0,0,1,123,34Z"/><path class="cls-46" d="M123.61,33.19s.74-1,1.15-1,1,1.81,1,1.81a5.47,5.47,0,0,0-.65-2.82A3.47,3.47,0,0,0,123.61,33.19Z"/><path class="cls-47" d="M123.51,34.34a1.37,1.37,0,0,1,1.18,0,1.59,1.59,0,0,1,.94,1.18S124.05,34.68,123.51,34.34Z"/><path class="cls-48" d="M131.47,35.87A63.35,63.35,0,0,0,130,28.65a10.3,10.3,0,0,1-.43-4.88s-1.79-1-3.15-.34c0,0-.14,3.82-.2,7.36S126.15,36.15,131.47,35.87Z"/><path class="cls-40" d="M120.79,34.38s1.87,3.74,7.81,4.57l-1.32.19S123.61,39.4,120.79,34.38Z"/><path class="cls-49" d="M122,34a3,3,0,0,0-2.27,1,1.73,1.73,0,0,1,1.38-1.68S122,33.45,122,34Z"/><path class="cls-50" d="M107.67,38.58s6.43,4.31,9.93,6.12a39.42,39.42,0,0,0,8.17,2.81s-2.12.71-6.19-.74S109,40.36,107.67,38.58Z"/><path class="cls-51" d="M131.48,13.15a22,22,0,0,0-11.8-2.77,31.74,31.74,0,0,1-11.9-1.54c.27.06,5.28,1.3,8.54.94s8.25-4,11.32-3S131.48,13.15,131.48,13.15Z"/><path class="cls-52" d="M137.61,6.58c-.14,1.87-2.91,4.59-3.16,4.83l0,0c-1,.66-2.32,1.54-2.44,1.62h0s1-4.68-2.63-6.31c-3.1-1.4-11.43-1.47-15.66-.79-.43.06-.82.14-1.17.22.43-.11,1-.24,1.79-.37l.07,0a31.76,31.76,0,0,1,4.81-.38c4.39,0,9.18.55,11.45,1.57a3.6,3.6,0,0,0,3.93-.62,59.17,59.17,0,0,0-7.39-.7c-3.43-.06-4-.35-4-.35s3.46.31,7.63.31a13.39,13.39,0,0,1,6,1.13A1.59,1.59,0,0,0,137.61,6.58Z"/><path class="cls-53" d="M126.24,19S124.67,27,122.18,29c0,0-8.72,1.05-6.28-8.08C115.9,20.94,121.49,18.2,126.24,19Z"/><path class="cls-54" d="M129.84,23.28a8.65,8.65,0,0,0-.24,3.19c.25,1.48.66,2.92.66,2.92s2.26,1.85,3.37,0c0,0-.28-4.16,1-6.92A5.27,5.27,0,0,0,129.84,23.28Z"/><path class="cls-55" d="M128.05,46.8s4.19,8.16,4.7,15.71l-7.38,2.91a28.28,28.28,0,0,1,3.69,11.46S114.57,92,112.42,95a236.93,236.93,0,0,0,9.37-24.08A135.2,135.2,0,0,0,127,47.2Z"/><path class="cls-56" d="M97.47,42.08S108,58.93,115.47,63c0,0,7.34-7.88,9.58-15.28,0,0-4.35,11.16-9.88,14.45a27.55,27.55,0,0,0,.38-6s.07,4.41-.76,6.08A86.77,86.77,0,0,1,97.47,42.08Z"/><path class="cls-57" d="M115.55,56.11a37.66,37.66,0,0,0,7-6.55l3.18.6s-2.54,16.78-6.31,24.73S99.4,91,99.4,91l14.09-6.09s-9.57,9.38-16.63,13a21.2,21.2,0,0,0-9.56,10.67l-3.19,8,20.76-4.47s12.57-26.95,15.75-34.75S127,47.2,127,47.2l-4.06.49A35.76,35.76,0,0,1,115.55,56.11Z"/><path class="cls-58" d="M98.34,129.29s5.55-10.25,8-12.68l-.3,52.6s2.48-54.16,4.79-54.8c5.73-1.58,6.13,32,6.13,32s.13-31.55-.4-33.61c0,0-6-2.28-14.92-.89s-16.73,3.36-16.73,3.36-8.17,12.9-12.15,16.63l1.59.88S91.24,130,98.34,129.29Z"/><path class="cls-59" d="M98.94,56s.34,17.25,7.22,24.68c0,0-5.56-3.86-6.83-8.7Z"/><path class="cls-60" d="M116.53,112.83s-4.18.33-5.73,1.58-2.2,13.7-2.2,13.7l-2.29-11.5s-5.7,7.34-8,12.68l-24,3.52-1.59-.88s10.11-11.7,12.15-16.63C84.88,115.3,108,108.81,116.53,112.83Z"/><path class="cls-61" d="M123.16,66.77l-1.31,6c-1,3.25-2.11,6.61-3.35,10-3.84,10.56-13.63,29.3-13.63,29.3-5.85,1-14.76,3.33-18.94,4.47L83.8,117l-1.72.29,13.4-26,1.57-3a9.48,9.48,0,0,0,6.53.46c3.59-1.06,13.16-8.62,15.89-13.79A59.8,59.8,0,0,0,123.16,66.77Z"/><path class="cls-62" d="M104.36,100.67s18.34.74,21.46,1.53,12,4.68,12,4.68l-.68,1.59,2.1,1.31a2.66,2.66,0,0,1-2.1,1.82h-1.36a4.26,4.26,0,0,1-2.1,1.13,9.58,9.58,0,0,1-2.73,0,19.61,19.61,0,0,1-4.14,0,80.8,80.8,0,0,1-8.29-1.67s-9.77-.28-11.36-.62a5.73,5.73,0,0,1-2.84-2.1l-4.71,0S101.29,103,104.36,100.67Z"/><path class="cls-63" d="M147.8,126.79s1.7-6.41,3.41-8.86,9.68-3.44,9.68-3.44l-44.36-1.66.36,14S139.28,125,147.8,126.79Z"/><path class="cls-64" d="M60.58,54.73s-8.75,29.47,1.47,56.05c0,0,14.26,5,35.84,4.26,0,0,2.92-11.26,7.45-15.63v1.3l.5-2.71A63.26,63.26,0,0,1,84,90.16l1.48-3-2.28-.68s-4.83-22.26-7.55-27.2C72.62,53.76,60.58,54.73,60.58,54.73Z"/><path class="cls-65" d="M97.56,34l-.09,1.51a104.4,104.4,0,0,0,15,20.51s-10.88-8.06-15-15l-.86-5.17Z"/><path class="cls-66" d="M58.93,51.49a50.59,50.59,0,0,1,11.72,1.59,25.62,25.62,0,0,0,11.81,0s4.12-9.58,5.05-13.84c0,0-11.07,4.68-23.24,10.66Z"/><path class="cls-67" d="M60.58,54.73s9.39-3.24,15.29,3.5c3.76,4.29,7.36,28.3,7.36,28.3l3.54-15.9s-2.27,6.52-3.63,8.27c0,0-3.94-19.7-7.12-22.87s-17.09-4.54-17.09-4.54A4.37,4.37,0,0,0,60.58,54.73Z"/><path class="cls-68" d="M83.23,86.53l7.41-9.48-4-13.52,7.78-5.45-8.23-8.8L97.47,46.1s1.75,24.29,1.32,33.45a37.11,37.11,0,0,1-4,15.41S86.3,92.66,84,90.16l1.48-3Z"/><path class="cls-69" d="M96.61,35.87l-5,.89s-5,7.35-5.39,12.52l10.67,6.83s-8.51,3.62-10.22,7.42c0,0,6.19,16.72,7.21,21.36A35.41,35.41,0,0,1,94.25,95s5-8,5.14-24.24S96.61,35.87,96.61,35.87Z"/><polygon class="cls-67" points="86.19 49.28 94.95 56.77 96.86 56.11 86.19 49.28"/><path class="cls-70" d="M84,90.16a25.5,25.5,0,0,0-16,9.25,24.76,24.76,0,0,1,17.44-12.2Z"/><path class="cls-71" d="M60.58,54.73s0,17.6,2,26S70.91,91,70.91,91,64,91.39,60.58,85.3,60.58,54.73,60.58,54.73Z"/><path class="cls-72" d="M97.89,115s-22.49-7.56-27-7.44-8.86,3.18-8.86,3.18A129.75,129.75,0,0,0,97.89,115Z"/><path class="cls-73" d="M105.84,98s-5.39-1-14.79.06-19.29-1.59-19.29-1.59A21.25,21.25,0,0,1,84,90.16S90.48,95,105.84,98Z"/><path class="cls-67" d="M140.61,52.67s-5.34,5.26-7.86,9.84l-7.38,2.91,5.7-1.28s-.72,9.64-2,12.74c0,0-14.84,13.47-16.22,19.14a100.88,100.88,0,0,1,16.22-17.16L132,80.48l9.39-3.43s2.12-11.63-2.09-22.38Z"/><path class="cls-74" d="M131.07,115l2.35-40.15S167,70.57,196,73.45L185.28,114Z"/><polygon class="cls-75" points="133.41 74.89 131.98 74.89 130.31 113.22 108.9 108.96 108.9 112.14 131.07 115.04 133.41 74.89"/><path class="cls-76" d="M132,74.89s33.24-5.38,64.05-1.44c0,0-33.58-2.08-62.61,1.78Z"/><path class="cls-43" d="M159.85,96.88s7.5-13.47,14.09-6.81A89.36,89.36,0,0,0,159.85,96.88Z"/><path class="cls-43" d="M159.25,95.37S158,87.65,162,86.59Z"/><path class="cls-77" d="M128.51,47.75s-5.41,32.3-13.62,43.8c0,0,7.46-18.14,12.15-44.35l1-.4Z"/><path class="cls-78" d="M84.88,114.67l-24.38,14s6.7-4.48,12.19-8.74l-9.81,2.45,3.2-10.49S80.79,114.13,84.88,114.67Z"/><path class="cls-67" d="M66.08,111.94l-3.2,10.49L72.69,120l-6.58,5.51s14-7.38,18.77-10.82C84.88,114.67,71.87,113.56,66.08,111.94Z"/><path class="cls-79" d="M165.27,176.73l-6.72,4-.64-4.16L165,172.7S165.15,175.75,165.27,176.73Z"/><polygon class="cls-79" points="105.1 177.5 112.77 174.55 113.02 168.59 106.01 169.21 108.53 171.31 105.1 174.76 105.1 177.5"/><path class="cls-80" d="M89.91,70.69s6.08,14.71,5.42,20a26.77,26.77,0,0,0,0-8.34C94.68,77.7,89.91,70.69,89.91,70.69Z"/><path class="cls-81" d="M75.87,58.23S70.58,85,71.76,90.16c0,0,8.69-3.35,11.47-3.63C83.23,86.53,79.88,61.25,75.87,58.23Z"/><path class="cls-82" d="M101.61,178.47s-4.13-30.26-3.72-43.87c.14-4.7,4.2-11.86,4.2-11.86l-6.79,6.91,3-.36-1.82,5.31A337.5,337.5,0,0,0,101.61,178.47Z"/><path class="cls-83" d="M118.76,168.76s-1.62-16.21-1.85-25.28l-8.38-10.67L106,169.21A75,75,0,0,1,118.76,168.76Z"/><polygon class="cls-84" points="116.98 148.41 113.05 115.87 116.98 140.35 116.98 148.41"/><polygon class="cls-85" points="165.46 170.9 161.97 115.87 160.89 174.95 165.46 172.45 165.46 170.9"/><path class="cls-86" d="M149,127.93s.33,9.88.93,14.5,7.72,34.3,7.72,34.3-9.85-33.66-9.79-36.88S149,127.93,149,127.93Z"/><path class="cls-87" d="M149,127.93s.8-5.45,2.9-9a23.51,23.51,0,0,0-4.09,9Z"/><path class="cls-20" d="M103.45,108.35a8,8,0,0,1,2.86-7.6l-2-.08a15.93,15.93,0,0,0-4.24,7.68Z"/><path class="cls-88" d="M125.82,102.2a6.45,6.45,0,0,0-1.59,1.2l-1.64,1.7,6.47,3.25-6.93-2.4a5.11,5.11,0,0,0-1.81,2.4l7.55,2.49L120.32,109l-2.67,1.53,12.66,2.67.41-9.3Z"/><polygon class="cls-17" points="130.31 108.56 123.16 105.39 130.48 109.34 130.31 108.56"/><polygon class="cls-17" points="130.58 105.89 126.56 102.9 130.64 105.63 130.58 105.89"/><polygon class="cls-17" points="130.38 111.61 122.01 109.42 130.38 111.34 130.38 111.61"/><path class="cls-89" d="M116,187.67s-7,2.46-9.71,7.08a32.57,32.57,0,0,0,7.31,6.34c3.8,2.18,20.58,1.06,20.58,1.06l.05.51-18.93.69-.74,1.69h-14L102.93,192l-.63-1.67,1.26-.53.48,1.67,1.06-.41s1.42-6.28,9.31-4.81Z"/><path class="cls-90" d="M170.07,187.49l-2.23,11.22,13.58,1.34,17.94,1.6h-10.9l-.23,1.41-33.31-.41,1.3-3.66,2.14-8.52L158,188.8l.53-.15,2.83,2a15.09,15.09,0,0,1,7.12-3.83Z"/><polygon class="cls-91" points="169.08 183.5 158.94 186.07 166.5 182.12 169.08 183.5"/><polygon class="cls-92" points="114.14 181 105.1 185.28 118.76 182.37 114.14 181"/><path class="cls-93" d="M121.7,60.92s-6.85,5.17-8.86,5.51-8.33.85-8.33.85,7.1,1.55,9,1.09S121.7,60.92,121.7,60.92Z"/><path class="cls-94" d="M96.61,35.87l.86,19.71L86.23,48.82s2.19-7.32,5.35-12.06Z"/><path class="cls-95" d="M131.48,13.15s-1.28-3.1-3.1-3.86-4.22,3.17-4.77,6.39a9.82,9.82,0,0,0,1.46,6.25,8.75,8.75,0,0,1-.84-6.37c.83-3.84,3.2-4.57,4.15-4.61S131.48,13.15,131.48,13.15Z"/><path class="cls-96" d="M133.79,200s-15.17,2.16-18.47,1.12-9-6.34-9-6.34,3.08-5.87,9.31-6.93C115.62,187.82,127,196.77,133.79,200Z"/><path class="cls-97" d="M199.36,198.91s-14.23,1.36-21.5,0-9.07-5-9.07-5l1.28-6.41S192.62,197,199.36,198.91Z"/><path class="cls-67" d="M94.78,95,85.2,87.83,84,90.16A52.51,52.51,0,0,0,94.78,95Z"/><polygon class="cls-98" points="98.94 56.03 94.25 50.64 91.85 44.28 98.77 53.79 98.94 56.03"/><polygon class="cls-99" points="140.61 52.67 136.75 53.03 131.07 46.32 140.61 52.67"/><path class="cls-43" d="M177.41,72.9s1.13,3.81,3.33,4.19,4.39-4.19,4.39-4.19Z"/><path class="cls-43" d="M180.89,78.9c-1.36-.42-1.41,3.57-.35,4S182.1,79.27,180.89,78.9Z"/><circle class="cls-100" cx="164.84" cy="92.01" r="12.4" transform="translate(-16.78 143.51) rotate(-45)"/><polygon class="cls-101" points="134.58 115.12 135.48 112.83 183.58 111.94 183.58 114.07 134.58 115.12"/><rect class="cls-102" x="99.63" y="172.15" width="8.04" height="0.47" transform="translate(-86.1 105.65) rotate(-39.6)"/><path class="cls-102" d="M106.1,166.79l-.19-.43a25.69,25.69,0,0,1,12.55-1.45l-.08.47A25.28,25.28,0,0,0,106.1,166.79Z"/><rect class="cls-102" x="156.06" y="170.97" width="10" height="0.47" transform="translate(-65.8 109.67) rotate(-31.57)"/><rect class="cls-102" x="165.18" y="165.49" width="7.59" height="0.47" transform="matrix(0.97, -0.22, 0.22, 0.97, -32.6, 41.7)"/><path class="cls-102" d="M159.86,171.88c-.08-.24-7.65-24-8.71-30.8-1-6.12-1.75-14-1.89-15.35h-1.41l.35-1.14-31.34,1.12v-.47l32-1.15-.35,1.16h1.2l0,.22c0,.09.85,8.84,1.9,15.54s8.62,30.49,8.7,30.73Z"/><polygon class="cls-103" points="173.53 168.93 162.15 118.72 165.46 170.9 173.53 168.93"/><path class="cls-104" d="M126.25,6.58a20.31,20.31,0,0,1,3.25-.32c2.09-.07,1.68-.57,2.15-.78a28.1,28.1,0,0,1,2.93-.35c.23-.09-.29-.5-.29-.5a4.94,4.94,0,0,1,2.29.41,5.47,5.47,0,0,0-1.44,0c-.3.13.16.43-1,.54s-2.38.2-2.56.84-2.39.07-2.78.29-.3.43-.3.43A2.7,2.7,0,0,0,126.25,6.58Z"/><path class="cls-105" d="M63.87,50.15S74.43,53.31,76,56c0,0-6.19-4-17.09-4.54Z"/><path class="cls-106" d="M85.51,87.21S73,90.41,69.11,97.72A23.27,23.27,0,0,1,83.23,86.53Z"/><path class="cls-102" d="M120.83,31.58A7.15,7.15,0,0,1,116.27,30c-1.31-1.15-1.67-3.91-1.51-5.5.06-.57.22-1.3.62-1.53,2.09-1.18,10.07-.85,11.06.83.52.87-.77,5.72-2.7,7A5.24,5.24,0,0,1,120.83,31.58Zm-1-8.83a10,10,0,0,0-4.19.65h0c-.1.06-.29.37-.38,1.17-.17,1.72.29,4.16,1.35,5.1,1.78,1.57,5.14,1.94,6.9.76s2.91-5.78,2.56-6.37C125.56,23.24,122.54,22.75,119.8,22.75Z"/><path class="cls-102" d="M135.61,33.3h-.31a4.69,4.69,0,0,1-3.22-1.57c-1-1.17-1.3-4.06-1.12-5.7.11-1.05.36-1.23.45-1.3h0c1.17-.87,4.42-.91,6.53-.36.77.2,1.74.57,2,1.2.38.84-.65,5.72-2.06,7A3.45,3.45,0,0,1,135.61,33.3Zm-3.92-8.2a1.92,1.92,0,0,0-.27,1c-.16,1.51.1,4.29,1,5.34a4.28,4.28,0,0,0,2.9,1.41,3.13,3.13,0,0,0,2.25-.65c1.33-1.17,2.22-5.82,1.95-6.42-.16-.35-.78-.69-1.7-.93-2-.51-5.09-.5-6.14.28Z"/><path class="cls-102" d="M131.13,25.56c-1.41-1.61-4.75,0-4.79,0l-.2-.42c.15-.07,3.7-1.77,5.34.12Z"/><path class="cls-102" d="M107.55,18.69s3.12,2.11,3.53,3.53l4,1.72.4-.75-7.88-4.9Z"/><path class="cls-107" d="M117.8,30.21s4-1.68,6.43-1.56C124.23,28.65,124,32.37,117.8,30.21Z"/><path class="cls-107" d="M133.29,31.8s3-1.68,4.87-1.57C138.16,30.23,138,34,133.29,31.8Z"/><path class="cls-43" d="M115.53,28.64a2.69,2.69,0,0,0,1.15,1.41A6.26,6.26,0,0,0,115.53,28.64Z"/><path class="cls-43" d="M131.84,30.89a1.69,1.69,0,0,0,1.23,1.48A11.69,11.69,0,0,1,131.84,30.89Z"/><path class="cls-14" d="M168.47,186.83s27.22,8.55,30.89,12.08C199.36,198.91,175.54,191.18,168.47,186.83Z"/></g></g></g></svg>