<svg xmlns="http://www.w3.org/2000/svg" xmlns:xlink="http://www.w3.org/1999/xlink" viewBox="0 0 237.91 208.7"><defs><style>.cls-1{isolation:isolate;}.cls-2{fill:url(#Áåçûìÿííûé_ãðàäèåíò_126);}.cls-10,.cls-101,.cls-12,.cls-13,.cls-14,.cls-15,.cls-18,.cls-19,.cls-20,.cls-22,.cls-23,.cls-24,.cls-3,.cls-32,.cls-33,.cls-34,.cls-35,.cls-36,.cls-37,.cls-38,.cls-39,.cls-4,.cls-40,.cls-41,.cls-48,.cls-5,.cls-52,.cls-53,.cls-54,.cls-55,.cls-6,.cls-61,.cls-62,.cls-63,.cls-64,.cls-65,.cls-66,.cls-67,.cls-68,.cls-69,.cls-7,.cls-70,.cls-71,.cls-72,.cls-73,.cls-74,.cls-75,.cls-76,.cls-77,.cls-78,.cls-79,.cls-8,.cls-80,.cls-83,.cls-84,.cls-85,.cls-86,.cls-9,.cls-98,.cls-99{fill-rule:evenodd;}.cls-10,.cls-12,.cls-14,.cls-15,.cls-23,.cls-24,.cls-29,.cls-3,.cls-30,.cls-36,.cls-4,.cls-5,.cls-52,.cls-54,.cls-56,.cls-57,.cls-58,.cls-6,.cls-60,.cls-61,.cls-62,.cls-63,.cls-64,.cls-65,.cls-66,.cls-67,.cls-68,.cls-69,.cls-7,.cls-70,.cls-71,.cls-72,.cls-73,.cls-74,.cls-75,.cls-76,.cls-78,.cls-79,.cls-8,.cls-80,.cls-83,.cls-84,.cls-85,.cls-86,.cls-89,.cls-9,.cls-90,.cls-91,.cls-96,.cls-97,.cls-99{mix-blend-mode:multiply;}.cls-3{fill:url(#Áåçûìÿííûé_ãðàäèåíò_144);}.cls-4{fill:url(#Áåçûìÿííûé_ãðàäèåíò_156);}.cls-36,.cls-5,.cls-6,.cls-70,.cls-71,.cls-72,.cls-75,.cls-78,.cls-83,.cls-84{opacity:0.74;}.cls-5{fill:url(#Áåçûìÿííûé_ãðàäèåíò_202);}.cls-6{fill:url(#Áåçûìÿííûé_ãðàäèåíò_202-2);}.cls-7{fill:url(#Áåçûìÿííûé_ãðàäèåíò_156-2);}.cls-8{fill:url(#Áåçûìÿííûé_ãðàäèåíò_156-3);}.cls-9{fill:url(#Áåçûìÿííûé_ãðàäèåíò_156-4);}.cls-10{fill:url(#Áåçûìÿííûé_ãðàäèåíò_156-5);}.cls-11{fill:#ce3633;}.cls-12{fill:url(#Áåçûìÿííûé_ãðàäèåíò_156-6);}.cls-13,.cls-51,.cls-98{fill:#fff;}.cls-14,.cls-91{fill:#cf78a2;}.cls-15{fill:url(#Áåçûìÿííûé_ãðàäèåíò_157);}.cls-16{fill:url(#Áåçûìÿííûé_ãðàäèåíò_24);}.cls-17{fill:#590e33;}.cls-18{fill:url(#Áåçûìÿííûé_ãðàäèåíò_43);}.cls-19{fill:#e55c4d;}.cls-20{fill:url(#Áåçûìÿííûé_ãðàäèåíò_95);}.cls-21{fill:#8b1a36;}.cls-22{fill:url(#Áåçûìÿííûé_ãðàäèåíò_95-2);}.cls-23{fill:url(#Áåçûìÿííûé_ãðàäèåíò_25);}.cls-24{fill:url(#Áåçûìÿííûé_ãðàäèåíò_25-2);}.cls-25{fill:url(#Áåçûìÿííûé_ãðàäèåíò_7);}.cls-26{fill:url(#Áåçûìÿííûé_ãðàäèåíò_7-2);}.cls-27{fill:#81314d;}.cls-28{fill:#561b3a;}.cls-29{fill:#d34277;}.cls-29,.cls-56,.cls-57,.cls-76{opacity:0.5;}.cls-30,.cls-55{opacity:0.2;}.cls-30{fill:url(#Áåçûìÿííûé_ãðàäèåíò_177);}.cls-31,.cls-77{fill:#77175e;}.cls-31,.cls-77,.cls-95{opacity:0.3;}.cls-103,.cls-31,.cls-55,.cls-77,.cls-87,.cls-88,.cls-95{mix-blend-mode:screen;}.cls-32{fill:url(#Áåçûìÿííûé_ãðàäèåíò_95-3);}.cls-33{fill:url(#Áåçûìÿííûé_ãðàäèåíò_138);}.cls-34{fill:url(#Áåçûìÿííûé_ãðàäèåíò_138-2);}.cls-35{fill:url(#Áåçûìÿííûé_ãðàäèåíò_43-2);}.cls-36{fill:url(#Áåçûìÿííûé_ãðàäèåíò_62);}.cls-37{fill:url(#Áåçûìÿííûé_ãðàäèåíò_95-4);}.cls-38{fill:#c4b5ff;}.cls-39{fill:#ded6ff;}.cls-40{fill:#997fe0;}.cls-41{fill:url(#Áåçûìÿííûé_ãðàäèåíò_70);}.cls-42{fill:url(#Áåçûìÿííûé_ãðàäèåíò_195);}.cls-43{fill:url(#Áåçûìÿííûé_ãðàäèåíò_101);}.cls-44{fill:url(#Áåçûìÿííûé_ãðàäèåíò_83);}.cls-45{fill:#f6ccca;}.cls-46{fill:#2e0737;}.cls-47{fill:#ffdbde;}.cls-48{fill:#d43654;}.cls-49{fill:#601a36;}.cls-50{fill:#7a6357;}.cls-52{fill:url(#Áåçûìÿííûé_ãðàäèåíò_25-3);}.cls-53{fill:#831a36;}.cls-54{fill:url(#Áåçûìÿííûé_ãðàäèåíò_25-4);}.cls-55{fill:url(#Áåçûìÿííûé_ãðàäèåíò_78);}.cls-56{fill:url(#Áåçûìÿííûé_ãðàäèåíò_25-5);}.cls-57{fill:url(#Áåçûìÿííûé_ãðàäèåíò_25-6);}.cls-58,.cls-67{opacity:0.8;}.cls-58{fill:url(#Áåçûìÿííûé_ãðàäèåíò_25-7);}.cls-59{fill:url(#Áåçûìÿííûé_ãðàäèåíò_7-3);}.cls-60,.cls-99{fill:#cf7881;}.cls-61{fill:url(#Áåçûìÿííûé_ãðàäèåíò_140);}.cls-62{fill:url(#Áåçûìÿííûé_ãðàäèåíò_140-2);}.cls-63{fill:url(#Áåçûìÿííûé_ãðàäèåíò_140-3);}.cls-64{fill:url(#Áåçûìÿííûé_ãðàäèåíò_140-4);}.cls-65{fill:url(#Áåçûìÿííûé_ãðàäèåíò_140-5);}.cls-66{fill:url(#Áåçûìÿííûé_ãðàäèåíò_140-6);}.cls-67{fill:#bd78a9;}.cls-68{fill:url(#Áåçûìÿííûé_ãðàäèåíò_119);}.cls-69{fill:#b378b4;}.cls-70{fill:url(#Áåçûìÿííûé_ãðàäèåíò_153);}.cls-71{fill:url(#Áåçûìÿííûé_ãðàäèåíò_119-2);}.cls-72{fill:url(#Áåçûìÿííûé_ãðàäèåíò_119-3);}.cls-73{fill:#cf78d3;}.cls-74{fill:url(#Áåçûìÿííûé_ãðàäèåíò_153-2);}.cls-75{fill:url(#Áåçûìÿííûé_ãðàäèåíò_119-4);}.cls-76{fill:url(#Áåçûìÿííûé_ãðàäèåíò_119-5);}.cls-78{fill:url(#Áåçûìÿííûé_ãðàäèåíò_119-6);}.cls-79{fill:url(#Áåçûìÿííûé_ãðàäèåíò_119-7);}.cls-80{fill:url(#Áåçûìÿííûé_ãðàäèåíò_153-3);}.cls-81{fill:url(#Áåçûìÿííûé_ãðàäèåíò_195-2);}.cls-82{fill:url(#Áåçûìÿííûé_ãðàäèåíò_13);}.cls-83{fill:url(#Áåçûìÿííûé_ãðàäèåíò_119-8);}.cls-84{fill:url(#Áåçûìÿííûé_ãðàäèåíò_119-9);}.cls-85{fill:url(#Áåçûìÿííûé_ãðàäèåíò_119-10);}.cls-86{fill:url(#Áåçûìÿííûé_ãðàäèåíò_119-11);}.cls-87,.cls-88{opacity:0.59;}.cls-87{fill:url(#Áåçûìÿííûé_ãðàäèåíò_89);}.cls-88{fill:url(#Áåçûìÿííûé_ãðàäèåíò_88);}.cls-89{fill:url(#Áåçûìÿííûé_ãðàäèåíò_119-12);}.cls-90{fill:url(#Áåçûìÿííûé_ãðàäèåíò_119-13);}.cls-92,.cls-93,.cls-94,.cls-98{mix-blend-mode:soft-light;}.cls-92{fill:url(#Áåçûìÿííûé_ãðàäèåíò_119-14);}.cls-93{fill:url(#Áåçûìÿííûé_ãðàäèåíò_119-15);}.cls-94{fill:url(#Áåçûìÿííûé_ãðàäèåíò_119-16);}.cls-95{fill:#ff937f;}.cls-96{fill:url(#Áåçûìÿííûé_ãðàäèåíò_25-8);}.cls-97{fill:url(#Áåçûìÿííûé_ãðàäèåíò_25-9);}.cls-100{fill:#f6e0cd;}.cls-101{fill:url(#Áåçûìÿííûé_ãðàäèåíò_109);}.cls-102{fill:#9a7c9e;}.cls-103{fill:url(#Áåçûìÿííûé_ãðàäèåíò_155);}.cls-104{fill:#a22157;}.cls-105{fill:#59ffff;}</style><linearGradient id="Áåçûìÿííûé_ãðàäèåíò_126" x1="119.02" y1="200.26" x2="119.02" y2="1" gradientUnits="userSpaceOnUse"><stop offset="0" stop-color="#ff8134"/><stop offset="0.98" stop-color="#f7e54c"/></linearGradient><linearGradient id="Áåçûìÿííûé_ãðàäèåíò_144" x1="99.48" y1="148.98" x2="99.48" y2="27.52" gradientUnits="userSpaceOnUse"><stop offset="0.01" stop-color="#f49eaa"/><stop offset="0.99" stop-color="#ffe5dd"/></linearGradient><linearGradient id="Áåçûìÿííûé_ãðàäèåíò_156" x1="142.41" y1="173.66" x2="196.43" y2="173.66" gradientUnits="userSpaceOnUse"><stop offset="0" stop-color="#fff"/><stop offset="0.99" stop-color="#ffb7aa"/></linearGradient><linearGradient id="Áåçûìÿííûé_ãðàäèåíò_202" x1="70.36" y1="17.04" x2="70.36" y2="9.74" gradientUnits="userSpaceOnUse"><stop offset="0.01" stop-color="#e12eb2"/><stop offset="1" stop-color="#fff"/></linearGradient><linearGradient id="Áåçûìÿííûé_ãðàäèåíò_202-2" x1="60.01" y1="12.98" x2="60.01" y2="5.68" xlink:href="#Áåçûìÿííûé_ãðàäèåíò_202"/><linearGradient id="Áåçûìÿííûé_ãðàäèåíò_156-2" x1="68.9" y1="194.97" x2="68.9" y2="155.5" xlink:href="#Áåçûìÿííûé_ãðàäèåíò_156"/><linearGradient id="Áåçûìÿííûé_ãðàäèåíò_156-3" x1="0.14" y1="189.23" x2="174.5" y2="189.23" xlink:href="#Áåçûìÿííûé_ãðàäèåíò_156"/><linearGradient id="Áåçûìÿííûé_ãðàäèåíò_156-4" x1="211.13" y1="197.67" x2="211.13" y2="184.42" xlink:href="#Áåçûìÿííûé_ãðàäèåíò_156"/><linearGradient id="Áåçûìÿííûé_ãðàäèåíò_156-5" x1="32.34" y1="127.75" x2="32.34" y2="53.68" xlink:href="#Áåçûìÿííûé_ãðàäèåíò_156"/><linearGradient id="Áåçûìÿííûé_ãðàäèåíò_156-6" x1="107.31" y1="189.36" x2="174.5" y2="189.36" xlink:href="#Áåçûìÿííûé_ãðàäèåíò_156"/><linearGradient id="Áåçûìÿííûé_ãðàäèåíò_157" x1="9.3" y1="187.2" x2="32.22" y2="187.2" gradientUnits="userSpaceOnUse"><stop offset="0.01" stop-color="#ffb7aa"/><stop offset="1" stop-color="#fff"/></linearGradient><linearGradient id="Áåçûìÿííûé_ãðàäèåíò_24" x1="100.71" y1="147.19" x2="100.71" y2="117.13" gradientUnits="userSpaceOnUse"><stop offset="0.02" stop-color="#6d2c2e"/><stop offset="1" stop-color="#600e33"/></linearGradient><linearGradient id="Áåçûìÿííûé_ãðàäèåíò_43" x1="149.57" y1="106.1" x2="149.57" y2="58.01" gradientUnits="userSpaceOnUse"><stop offset="0.02" stop-color="#70149a"/><stop offset="1" stop-color="#a628c0"/></linearGradient><linearGradient id="Áåçûìÿííûé_ãðàäèåíò_95" x1="125.57" y1="50.86" x2="125.57" y2="4.43" gradientUnits="userSpaceOnUse"><stop offset="0" stop-color="#fd9e6c"/><stop offset="0.99" stop-color="#fc7b54"/></linearGradient><linearGradient id="Áåçûìÿííûé_ãðàäèåíò_95-2" x1="626.37" y1="14.04" x2="626.37" y2="2.56" gradientTransform="translate(-490.46 212.91) rotate(-17.97)" xlink:href="#Áåçûìÿííûé_ãðàäèåíò_95"/><linearGradient id="Áåçûìÿííûé_ãðàäèåíò_25" x1="614.29" y1="-75.96" x2="614.29" y2="-81.78" gradientTransform="translate(-471.12 248.77) rotate(-13.61)" gradientUnits="userSpaceOnUse"><stop offset="0" stop-color="#fff"/><stop offset="0.99" stop-color="#e897aa"/></linearGradient><linearGradient id="Áåçûìÿííûé_ãðàäèåíò_25-2" x1="615.35" y1="-75.96" x2="615.35" y2="-80.84" xlink:href="#Áåçûìÿííûé_ãðàäèåíò_25"/><linearGradient id="Áåçûìÿííûé_ãðàäèåíò_7" x1="119.82" y1="19.49" x2="128.48" y2="19.49" gradientUnits="userSpaceOnUse"><stop offset="0.02" stop-color="#9f3d2e"/><stop offset="1" stop-color="#9d1a39"/></linearGradient><linearGradient id="Áåçûìÿííûé_ãðàäèåíò_7-2" x1="134.64" y1="20.87" x2="139.75" y2="20.87" xlink:href="#Áåçûìÿííûé_ãðàäèåíò_7"/><linearGradient id="Áåçûìÿííûé_ãðàäèåíò_177" x1="119.63" y1="7.66" x2="119.63" y2="-12.48" gradientTransform="matrix(0.8, -0.22, 0.27, 0.96, 49.36, 84.63)" gradientUnits="userSpaceOnUse"><stop offset="0.01" stop-color="#e075ba"/><stop offset="0.5" stop-color="#f0bcde"/><stop offset="1" stop-color="#fff"/></linearGradient><linearGradient id="Áåçûìÿííûé_ãðàäèåíò_95-3" x1="151.67" y1="78.14" x2="151.67" y2="41.36" xlink:href="#Áåçûìÿííûé_ãðàäèåíò_95"/><linearGradient id="Áåçûìÿííûé_ãðàäèåíò_138" x1="147.72" y1="55.45" x2="156.1" y2="55.45" gradientUnits="userSpaceOnUse"><stop offset="0.01" stop-color="#fc7b54"/><stop offset="1" stop-color="#fd9e6c"/></linearGradient><linearGradient id="Áåçûìÿííûé_ãðàäèåíò_138-2" x1="148.91" y1="61.14" x2="159.3" y2="61.14" xlink:href="#Áåçûìÿííûé_ãðàäèåíò_138"/><linearGradient id="Áåçûìÿííûé_ãðàäèåíò_43-2" x1="108.16" y1="144.26" x2="108.16" y2="53.49" xlink:href="#Áåçûìÿííûé_ãðàäèåíò_43"/><linearGradient id="Áåçûìÿííûé_ãðàäèåíò_62" x1="109.11" y1="144.15" x2="109.11" y2="83.45" gradientUnits="userSpaceOnUse"><stop offset="0.01" stop-color="#b37aaa"/><stop offset="1" stop-color="#d3bdeb"/></linearGradient><linearGradient id="Áåçûìÿííûé_ãðàäèåíò_95-4" x1="156.51" y1="358.71" x2="156.51" y2="348.31" gradientTransform="translate(233.16 -236.53) rotate(41.42)" xlink:href="#Áåçûìÿííûé_ãðàäèåíò_95"/><linearGradient id="Áåçûìÿííûé_ãðàäèåíò_70" x1="90.54" y1="128.79" x2="90.54" y2="68.77" gradientUnits="userSpaceOnUse"><stop offset="0.02" stop-color="#a13bc7"/><stop offset="1" stop-color="#9025ab"/></linearGradient><linearGradient id="Áåçûìÿííûé_ãðàäèåíò_195" x1="176.8" y1="176.91" x2="176.8" y2="108.31" gradientUnits="userSpaceOnUse"><stop offset="0" stop-color="#770076"/><stop offset="0.98" stop-color="#d12531"/></linearGradient><linearGradient id="Áåçûìÿííûé_ãðàäèåíò_101" x1="74.53" y1="208.69" x2="74.53" y2="188.28" gradientUnits="userSpaceOnUse"><stop offset="0.02" stop-color="#623477"/><stop offset="1" stop-color="#460460"/></linearGradient><linearGradient id="Áåçûìÿííûé_ãðàäèåíò_83" x1="200.91" y1="205.53" x2="200.91" y2="184.42" gradientUnits="userSpaceOnUse"><stop offset="0" stop-color="#460460"/><stop offset="0.98" stop-color="#623477"/></linearGradient><linearGradient id="Áåçûìÿííûé_ãðàäèåíò_25-3" x1="123.63" y1="37.57" x2="131.25" y2="37.57" gradientTransform="matrix(1, 0, 0, 1, 0, 0)" xlink:href="#Áåçûìÿííûé_ãðàäèåíò_25"/><linearGradient id="Áåçûìÿííûé_ãðàäèåíò_25-4" x1="125.12" y1="34.92" x2="127.44" y2="34.92" gradientTransform="matrix(1, 0, 0, 1, 0, 0)" xlink:href="#Áåçûìÿííûé_ãðàäèåíò_25"/><linearGradient id="Áåçûìÿííûé_ãðàäèåíò_78" x1="127.72" y1="31.95" x2="133.17" y2="31.95" gradientUnits="userSpaceOnUse"><stop offset="0" stop-color="#ffc792"/><stop offset="0.22" stop-color="#fc9f64"/><stop offset="0.47" stop-color="#fa7a39"/><stop offset="0.69" stop-color="#f85f1a"/><stop offset="0.87" stop-color="#f64e07"/><stop offset="1" stop-color="#f64800"/></linearGradient><linearGradient id="Áåçûìÿííûé_ãðàäèåíò_25-5" x1="123.85" y1="30.41" x2="123.85" y2="19.53" gradientTransform="matrix(1, 0, 0, 1, 0, 0)" xlink:href="#Áåçûìÿííûé_ãðàäèåíò_25"/><linearGradient id="Áåçûìÿííûé_ãðàäèåíò_25-6" x1="135.94" y1="31.63" x2="135.94" y2="21.84" gradientTransform="matrix(1, 0, 0, 1, 0, 0)" xlink:href="#Áåçûìÿííûé_ãðàäèåíò_25"/><linearGradient id="Áåçûìÿííûé_ãðàäèåíò_25-7" x1="125.84" y1="50.86" x2="125.84" y2="5.76" gradientTransform="matrix(1, 0, 0, 1, 0, 0)" xlink:href="#Áåçûìÿííûé_ãðàäèåíò_25"/><linearGradient id="Áåçûìÿííûé_ãðàäèåíò_7-3" x1="109.52" y1="13.47" x2="144.15" y2="13.47" xlink:href="#Áåçûìÿííûé_ãðàäèåíò_7"/><linearGradient id="Áåçûìÿííûé_ãðàäèåíò_140" x1="120.12" y1="11.72" x2="136.68" y2="11.72" gradientUnits="userSpaceOnUse"><stop offset="0" stop-color="#ffe9ea"/><stop offset="0.99" stop-color="#bd5777"/></linearGradient><linearGradient id="Áåçûìÿííûé_ãðàäèåíò_140-2" x1="127.72" y1="12.98" x2="144.15" y2="12.98" xlink:href="#Áåçûìÿííûé_ãðàäèåíò_140"/><linearGradient id="Áåçûìÿííûé_ãðàäèåíò_140-3" x1="123.85" y1="7.54" x2="141.95" y2="7.54" xlink:href="#Áåçûìÿííûé_ãðàäèåíò_140"/><linearGradient id="Áåçûìÿííûé_ãðàäèåíò_140-4" x1="127.72" y1="4.11" x2="142.87" y2="4.11" xlink:href="#Áåçûìÿííûé_ãðàäèåíò_140"/><linearGradient id="Áåçûìÿííûé_ãðàäèåíò_140-5" x1="109.46" y1="13.8" x2="117.56" y2="13.8" xlink:href="#Áåçûìÿííûé_ãðàäèåíò_140"/><linearGradient id="Áåçûìÿííûé_ãðàäèåíò_140-6" x1="110.76" y1="18.54" x2="116.97" y2="18.54" xlink:href="#Áåçûìÿííûé_ãðàäèåíò_140"/><linearGradient id="Áåçûìÿííûé_ãðàäèåíò_119" x1="92.91" y1="102.16" x2="92.91" y2="78.14" gradientUnits="userSpaceOnUse"><stop offset="0.01" stop-color="#b37aaa"/><stop offset="1" stop-color="#fff"/></linearGradient><linearGradient id="Áåçûìÿííûé_ãðàäèåíò_153" x1="74.71" y1="109.57" x2="90.54" y2="109.57" gradientUnits="userSpaceOnUse"><stop offset="0" stop-color="#fff"/><stop offset="0.99" stop-color="#b37aaa"/></linearGradient><linearGradient id="Áåçûìÿííûé_ãðàäèåíò_119-2" x1="119.43" y1="91.88" x2="119.43" y2="63.48" xlink:href="#Áåçûìÿííûé_ãðàäèåíò_119"/><linearGradient id="Áåçûìÿííûé_ãðàäèåíò_119-3" x1="120.23" y1="57.34" x2="129.52" y2="57.34" xlink:href="#Áåçûìÿííûé_ãðàäèåíò_119"/><linearGradient id="Áåçûìÿííûé_ãðàäèåíò_153-2" x1="150.52" y1="101.71" x2="150.52" y2="81.5" xlink:href="#Áåçûìÿííûé_ãðàäèåíò_153"/><linearGradient id="Áåçûìÿííûé_ãðàäèåíò_119-4" x1="86.76" y1="127.75" x2="86.76" y2="118.24" xlink:href="#Áåçûìÿííûé_ãðàäèåíò_119"/><linearGradient id="Áåçûìÿííûé_ãðàäèåíò_119-5" x1="83.35" y1="106.83" x2="83.35" y2="70.95" xlink:href="#Áåçûìÿííûé_ãðàäèåíò_119"/><linearGradient id="Áåçûìÿííûé_ãðàäèåíò_119-6" x1="154.11" y1="85.78" x2="167.88" y2="85.78" xlink:href="#Áåçûìÿííûé_ãðàäèåíò_119"/><linearGradient id="Áåçûìÿííûé_ãðàäèåíò_119-7" x1="162.02" y1="106.1" x2="162.02" y2="96.95" xlink:href="#Áåçûìÿííûé_ãðàäèåíò_119"/><linearGradient id="Áåçûìÿííûé_ãðàäèåíò_153-3" x1="161.28" y1="85.1" x2="167.88" y2="85.1" xlink:href="#Áåçûìÿííûé_ãðàäèåíò_153"/><linearGradient id="Áåçûìÿííûé_ãðàäèåíò_195-2" x1="83.89" y1="182.02" x2="83.89" y2="115.49" xlink:href="#Áåçûìÿííûé_ãðàäèåíò_195"/><linearGradient id="Áåçûìÿííûé_ãðàäèåíò_13" x1="90.54" y1="182.16" x2="90.54" y2="182.07" gradientUnits="userSpaceOnUse"><stop offset="0.02" stop-color="#8b3d2e"/><stop offset="1" stop-color="#7c2242"/></linearGradient><linearGradient id="Áåçûìÿííûé_ãðàäèåíò_119-8" x1="88.94" y1="182.16" x2="88.94" y2="118.24" xlink:href="#Áåçûìÿííûé_ãðàäèåíò_119"/><linearGradient id="Áåçûìÿííûé_ãðàäèåíò_119-9" x1="77.11" y1="179.97" x2="77.11" y2="117.08" xlink:href="#Áåçûìÿííûé_ãðàäèåíò_119"/><linearGradient id="Áåçûìÿííûé_ãðàäèåíò_119-10" x1="186.24" y1="160.63" x2="186.24" y2="115.61" xlink:href="#Áåçûìÿííûé_ãðàäèåíò_119"/><linearGradient id="Áåçûìÿííûé_ãðàäèåíò_119-11" x1="181.55" y1="176.91" x2="181.55" y2="118.24" xlink:href="#Áåçûìÿííûé_ãðàäèåíò_119"/><linearGradient id="Áåçûìÿííûé_ãðàäèåíò_89" x1="109.8" y1="11.45" x2="117.84" y2="11.45" gradientUnits="userSpaceOnUse"><stop offset="0" stop-color="#ffc792"/><stop offset="0.08" stop-color="#e0af80"/><stop offset="0.28" stop-color="#9d7b5a"/><stop offset="0.46" stop-color="#654f3a"/><stop offset="0.63" stop-color="#392d21"/><stop offset="0.78" stop-color="#1a140f"/><stop offset="0.91" stop-color="#070504"/><stop offset="1"/></linearGradient><linearGradient id="Áåçûìÿííûé_ãðàäèåíò_88" x1="121.7" y1="7.43" x2="140.38" y2="7.43" gradientUnits="userSpaceOnUse"><stop offset="0"/><stop offset="0.09" stop-color="#070504"/><stop offset="0.22" stop-color="#1a140f"/><stop offset="0.37" stop-color="#392d21"/><stop offset="0.54" stop-color="#654f3a"/><stop offset="0.72" stop-color="#9d7b5a"/><stop offset="0.92" stop-color="#e0af80"/><stop offset="1" stop-color="#ffc792"/></linearGradient><linearGradient id="Áåçûìÿííûé_ãðàäèåíò_119-12" x1="179.84" y1="194.97" x2="221.98" y2="194.97" xlink:href="#Áåçûìÿííûé_ãðàäèåíò_119"/><linearGradient id="Áåçûìÿííûé_ãðàäèåíò_119-13" x1="61.38" y1="206.32" x2="87.67" y2="206.32" xlink:href="#Áåçûìÿííûé_ãðàäèåíò_119"/><linearGradient id="Áåçûìÿííûé_ãðàäèåíò_119-14" x1="184.39" y1="182.97" x2="191.55" y2="182.97" xlink:href="#Áåçûìÿííûé_ãðàäèåíò_119"/><linearGradient id="Áåçûìÿííûé_ãðàäèåíò_119-15" x1="182.8" y1="182.86" x2="186.7" y2="182.86" xlink:href="#Áåçûìÿííûé_ãðàäèåíò_119"/><linearGradient id="Áåçûìÿííûé_ãðàäèåíò_119-16" x1="76.54" y1="185.93" x2="84.22" y2="185.93" xlink:href="#Áåçûìÿííûé_ãðàäèåíò_119"/><linearGradient id="Áåçûìÿííûé_ãðàäèåíò_25-8" x1="150.02" y1="47.53" x2="150.02" y2="45.69" gradientTransform="matrix(1, 0, 0, 1, 0, 0)" xlink:href="#Áåçûìÿííûé_ãðàäèåíò_25"/><linearGradient id="Áåçûìÿííûé_ãðàäèåíò_25-9" x1="147.52" y1="53.18" x2="147.52" y2="49.52" gradientTransform="matrix(1, 0, 0, 1, 0, 0)" xlink:href="#Áåçûìÿííûé_ãðàäèåíò_25"/><radialGradient id="Áåçûìÿííûé_ãðàäèåíò_109" cx="147.44" cy="-3443.07" r="19.5" gradientTransform="translate(0 6256.52) scale(1 1.78)" gradientUnits="userSpaceOnUse"><stop offset="0.03" stop-color="#e3bbd1"/><stop offset="0.98" stop-color="#c5acce"/></radialGradient><radialGradient id="Áåçûìÿííûé_ãðàäèåíò_155" cx="144.19" cy="126.15" r="11.48" gradientTransform="translate(245.52 -36.44) rotate(80.75)" xlink:href="#Áåçûìÿííûé_ãðàäèåíò_89"/></defs><g class="cls-1"><g id="Layer_2" data-name="Layer 2"><g id="objects"><path class="cls-2" d="M12.22,186.93.14,195.14s147.14,5.43,184.25,5.1,53.52,0,53.52,0S235,186,230.83,185.47s-10.73,5.33-10.73,5.33-14.4-47.64-38.55-82.24S104.22,8.32,73.47,1c0,0-16.85,3.47-24.66,12H61.38l-3.29,1.4L61.38,17s-40,44.39-55,91.52S12.22,186.93,12.22,186.93Z"/><path class="cls-3" d="M113.18,64.65S89.54,26.07,79.55,27.56s4.62,32.57-2.44,54.49c0,0,0-18.57-13.11-33.6,0,0,12.47,17.52,5.44,72.76l11.31,8.23-1.2,12.13s-25-20.41-46.23-13.82c0,0,16.59,19,54.35,20.77S165,146.26,165,146.26s4.28-28.82-9.22-49.95S113.18,64.65,113.18,64.65Z"/><path class="cls-4" d="M142.41,168.77s25.23,11.93,54,9.43C196.43,178.2,164.27,176.48,142.41,168.77Z"/><path class="cls-5" d="M61.38,17a36,36,0,0,1,21.25-7.3s-14.72.77-24.54,4.64Z"/><path class="cls-6" d="M61.38,13s6.1-5.63,9.82-7.22c0,0-9.82-1.35-22.39,7.22Z"/><path class="cls-7" d="M99.48,155.5S73,187.66,38.32,195C38.32,195,91,190.86,99.48,155.5Z"/><path class="cls-8" d="M174.5,200.26s-30.86-22.47-52.9-22S88.89,193,88.89,193s20.43-15.14,79,5.51L.14,195.14S137.86,200.08,174.5,200.26Z"/><path class="cls-9" d="M220.1,190.8l-17.94,6.87S211,187,218,184.42Z"/><path class="cls-10" d="M38.32,53.68s-23.18,32.71-5,74.07C33.32,127.75,19.75,98.83,38.32,53.68Z"/><path class="cls-11" d="M.28,195.35,0,194.94c.46-.31,11.24-7.39,17.76-8.75-1-3.58-11.31-42.81-6.28-72.43C15.86,88,26.07,76.65,31,71.2a22.81,22.81,0,0,0,2.14-2.56c.58-1,1.83-3.69,3.57-7.47,4.74-10.32,12.68-27.6,18.78-34.39,7.17-8,8.43-11.1,8.62-11.72L62,13l1-1.62c-1.09-.49-6-2.26-14,1.8l-.23-.45C58,8,63.19,11,63.41,11.09l.22.13-1,1.72,2,2,0,.12c0,.12-.53,2.91-8.78,12.09-6,6.73-14,24-18.7,34.27-1.74,3.8-3,6.54-3.6,7.52a23.56,23.56,0,0,1-2.18,2.64C26.47,77,16.32,88.2,12,113.84c-5.22,30.8,6.23,72.07,6.34,72.48l.08.26-.27,0C11.73,187.83.39,195.28.28,195.35Z"/><path class="cls-12" d="M107.31,180.65s37,.5,67.19,19.61C174.5,200.26,136,170.23,107.31,180.65Z"/><path class="cls-13" d="M65.28,21.94c-.68-3-2.68,11.26-9.15,17.31S45.4,66.78,42,71.83s-6.34,9.4-5.85,11.62S41,74.71,42.78,72.06s8.87-8,10.15-17.38.18-11.19,4.12-15.43S65.92,24.71,65.28,21.94Z"/><path class="cls-13" d="M32.34,92.6a14.44,14.44,0,0,0-1.83,9.56S33.07,99,32.34,92.6Z"/><path class="cls-13" d="M66.29,10.34s2.5.49,4.91-2.25A8,8,0,0,0,66.29,10.34Z"/><path class="cls-13" d="M15.51,191.05s3.47-1.56,12.08-1.62C27.59,189.43,19.72,185.05,15.51,191.05Z"/><path class="cls-14" d="M105.08,51.35S95.17,37.67,87.85,40.68s-8.74,25.84-8.74,25.84.27,5.85-3.12,6.64c0,0-3.61-1.87-4.84,4.52s-3.49,42.23-1.71,43.53,7.83,5.45,7.83,5.45l9.49,14.69,36.41-5.91S102.79,87.55,105.08,51.35Z"/><path class="cls-14" d="M76.08,132.46s-9.56,44.79-7.18,65l11.84,1Z"/><path class="cls-14" d="M161.28,146.61s13.15,14.23,13.66,29.41l-1.2,1.49,2.9,22.73,10.6,0-1-25-19.36-36.11L165,146.26Z"/><path class="cls-15" d="M12.22,186.93s9-3.27,20,6A24.08,24.08,0,0,0,9.3,181.53Z"/><path class="cls-14" d="M18.53,195.86s12.44-6.58,18.11.55Z"/><polygon class="cls-16" points="91.3 147.19 110.88 146.68 94.32 118.36 90.54 117.13 91.3 147.19"/><path class="cls-17" d="M195,160.63s-5.68,11.88-13.73,16.28A22.73,22.73,0,0,1,195,160.63Z"/><path class="cls-17" d="M73.82,180s-.84,5.15,16.72,2.19c0,0,.38-9.94-4.29-11.41S73.82,180,73.82,180Z"/><path class="cls-18" d="M131.25,83.45h2.43S145.25,104.51,161,106.1c0,0,3.66-4.94,4.39-17.49l2.5-7.64s-2.47-1-3-4.88a12.46,12.46,0,0,0-3.28-6.6l2,4.83s-.61,2.93-1.95,2.93-5.82-5.06-5.82-5.06l.15-1.84-1.94.67a21.9,21.9,0,0,1,0,5.25,12.14,12.14,0,0,1-1.05,3.66l1.05,2-2.82,1.53s-6.12-8.6-9.19-13.12-4.84-10.87-6.55-12.29S131.25,83.45,131.25,83.45Z"/><path class="cls-19" d="M142.1,57.27s4.1,6.88,5.62,8.14c1.21,1,8.05,1.11,8.05,1.11l-3.13-15.17Z"/><path class="cls-19" d="M113.18,35.48a95.65,95.65,0,0,1-5.78,15.37s.79,9.32,5.78,13.8a8.55,8.55,0,0,0,2.15-7.41,28,28,0,0,1,3.77-10.43S113.76,37.85,113.18,35.48Z"/><path class="cls-20" d="M139.27,20.94a28.09,28.09,0,0,0-2,5.07c-1.46,4.38.13,6.34-1.4,13.05-.94,4.14-4.33,8-7.44,10.08h0a11.45,11.45,0,0,1-2.88,1.48l-.09,0a3.17,3.17,0,0,1-1.82.12c-2.81-.86-8.66-8.18-10.68-16-.14-.55-.27-1.11-.38-1.69v0c-.17-.79-.31-1.61-.44-2.45a72.63,72.63,0,0,1-.2-19.13c.73-4.2,2.81-5.72,13.62-6.7,7.39-.68,9.8-.73,12.54,3.23a10.21,10.21,0,0,1,1.47,4.62c.06.52.1,1,.12,1.57A35.18,35.18,0,0,1,139.27,20.94Z"/><path class="cls-21" d="M128.12,42.05h4.64S131.33,39,128.12,42.05Z"/><path class="cls-22" d="M112.53,24.84s-4.06-5.18-8.32-1.69S104,32,107.41,33s5.11-2.47,5.11-2.47A10.41,10.41,0,0,0,112.53,24.84Z"/><path class="cls-23" d="M111.52,27.73s-2.86-2.77-5.86-2.65-2.3,3-2.3,3a2.31,2.31,0,0,1,2-2.08,4.47,4.47,0,0,0,.8,3.44,2.33,2.33,0,0,0,2.37.84s-.27-2.75.43-3.37S111.52,27.73,111.52,27.73Z"/><path class="cls-24" d="M107.83,25.44a2.75,2.75,0,0,0-1.71,4,2,2,0,0,0,2.37.84s-.5-2.51.32-3.25,2.46.45,2.46.45A8.69,8.69,0,0,0,107.83,25.44Z"/><path class="cls-25" d="M119.82,21.94s4.51-2.31,8.43-2c0,0,1-2.32-1.21-2.81S120.43,19,119.82,21.94Z"/><path class="cls-26" d="M139.6,18.3a10.93,10.93,0,0,0-5,5.14,7.87,7.87,0,0,1,4.16-1.5A4.45,4.45,0,0,0,139.6,18.3Z"/><polygon class="cls-27" points="141.62 67.84 132.66 44.38 147.41 39.02 152.16 64.9 141.62 67.84"/><polygon class="cls-28" points="131.59 45.69 130.62 42.19 148.18 37.29 149.53 39.56 131.59 45.69"/><polygon class="cls-28" points="132.16 38.91 132.59 41.63 147.01 37.62 145.72 35.13 132.16 38.91"/><polygon class="cls-29" points="133.27 46.15 148.06 42.58 147.63 40.22 132.93 45.32 133.27 46.15"/><polygon class="cls-28" points="140.47 68.16 140.67 66.82 152.71 63.78 153.19 64.61 140.47 68.16"/><path class="cls-30" d="M134.07,48.05s7.23,18,13.05,16.63,1.44-19.37,1.44-19.37L152,64l-10.81,2.72Z"/><polygon class="cls-31" points="142.79 41.87 142.03 39.01 145.24 38.01 146.1 40.74 142.79 41.87"/><polygon class="cls-31" points="140.49 39.43 139.68 36.81 141.52 36.3 142.03 39.01 140.49 39.43"/><path class="cls-32" d="M140.71,44.52s-.86,1.46.84,3.29a28,28,0,0,1,6.87-1.67l-.06,1.26a35.94,35.94,0,0,0-8.63,3.45,2.69,2.69,0,0,0,1.5,2.91l1.51-.58s0,1.27,1.83,2a28.08,28.08,0,0,1,5.94-1.37v.78a6.32,6.32,0,0,0-2.79,1.69l1.19,1.83a32.28,32.28,0,0,1,4.76-1s-.5,5.9,0,7.55a2.7,2.7,0,0,0,2.1,1.87,18.28,18.28,0,0,1,0,6.41,20.1,20.1,0,0,0,6.41,5.21s1.12-.9,1.49-3.82c0,0-3.27-8.44-6.2-12.9s-6.64-16.72-6.64-16.72l-.73-3.34S146,41.36,140.71,44.52Z"/><path class="cls-33" d="M147.72,56.23a11,11,0,0,1,6.93-3.38l1.45,3.35a28.88,28.88,0,0,0-7.19,1.86A2.93,2.93,0,0,1,147.72,56.23Z"/><path class="cls-34" d="M156.74,60.19l-.64-4a22.5,22.5,0,0,0-7.19,1.86l4.76-1s-1.16,6,.22,8.08,5.41,0,5.41,0A31,31,0,0,1,156.74,60.19Z"/><path class="cls-35" d="M80.75,68.77v-1s17.7-11.19,22.19-14.33l4.37,10.2s2.53,6.63,5.1,9.47c0,0,6-4.3,7.82-17.71,0,0-.23.26,4.89.75s9.34.44,9.34.44a4,4,0,0,1,1.09,2.8c-.18,1.46-1.46,15-3.78,23.23,0,0-14.33,19.77-12,52.16,0,0-.69,10.12-6.57,9.39S103,137,103,137s-8.66-8.66-15.13-26.59S80.75,68.77,80.75,68.77Z"/><path class="cls-36" d="M131.25,83.45S114.6,94.86,101.9,97.22a84.64,84.64,0,0,0,15.49-3.31s-12.82,5.61-16.68,5-5.87-5-5.87-5-4,6.88-5.79,8.25L87,107.8s10.29,30.64,24.68,35.74,9.09-23.44,9.09-23.44a57.47,57.47,0,0,1,1.22-16C123.87,95.21,131.25,83.45,131.25,83.45Z"/><path class="cls-19" d="M135.64,52s-2,1.54-2,2.09a5,5,0,0,0,1.78,2.42,8.45,8.45,0,0,0,2,.5Z"/><path class="cls-37" d="M110.29,121.21s7.61,6.31,15,11.63a56.19,56.19,0,0,1,2.5,8.23s-6.83,1.29-10.78-1.7-9.73-12.9-9.73-12.9l-2.23-2.86S107.53,121.29,110.29,121.21Z"/><path class="cls-19" d="M76.08,176.91s.73,9,0,12.91l6.86.73s-.55-11.62,0-17.38Z"/><path class="cls-19" d="M181.3,175.51s2.5,7.26,2.44,12.26c0,0,2.32,1.77,3.11,1.65s4.7-3.17,4.7-3.17a140.19,140.19,0,0,1-6.77-24.16Z"/><path class="cls-38" d="M107.31,63.69s2.08,5.9,5.1,9.47a22.29,22.29,0,0,0,6.69-11.07l-3.77-4.85s.27,5.4-2.15,7.41l-2.91-3.87Z"/><path class="cls-39" d="M110.27,60.78s-5.28,5.36-6.74,9.57c0,0-3.66-10.57,0-18.31l4.39-4.14.66.45L108,48.3A40.53,40.53,0,0,0,110.27,60.78Z"/><path class="cls-39" d="M114.37,63l2.61-2.9a34.08,34.08,0,0,1,4.62,7.7s.23-9.19-1.74-13.27l-2.62-4.2a18.79,18.79,0,0,0-1.91,6.89A29.4,29.4,0,0,1,114.37,63Z"/><path class="cls-40" d="M112.59,70.35l.59-5.7,3.71-4.94s1.3-5.27.35-9.36a14.64,14.64,0,0,0-1.77,5.58,33.15,33.15,0,0,1-2.71,8.16Z"/><path class="cls-40" d="M108.58,48.35l-.23,2.5.7,5.79a45.86,45.86,0,0,1-1.13-8.74Z"/><path class="cls-41" d="M80.75,68.77s-14.37,31-10.71,50c0,0,7,5.19,29.46,7.75l.74,1.28s2.31-.79,3.35-.43a9.47,9.47,0,0,1,2.32,1.47l2-1.39-.56-.93a13.11,13.11,0,0,1,2.32-5.25l2,1.1V117.5s-1.1.49-4.33-.18-3.84.92-3.84.92a33.31,33.31,0,0,1-14-9.64l1.1-1.4-1.65-.37s.16-11.45,1.65-18.22C92.28,80.75,82,69.77,82,69.77Z"/><path class="cls-42" d="M159.92,112.1s10.77-6,16.62-2.89c2.61,1.38,4.76,33.49,18.49,51.42,0,0-10.8,6.75-13.73,16.28,0,0-12.68-24.2-14-34.18s0-15.22,0-15.22l-2.56-.73S155.1,116.85,159.92,112.1Z"/><path class="cls-43" d="M87.67,204.61v4.08H61.38l.67-4.75A74.28,74.28,0,0,0,73.82,193s.18-4.27,1.59-4.7S83,190.55,83,190.55l-.06-1.28,1,.34s.49,3.35.73,6.4a9.54,9.54,0,0,0,.31,1.66A42.07,42.07,0,0,0,87.67,204.61Z"/><path class="cls-44" d="M222,205.53H179.87c-.4-7.81,3.18-16.54,3.18-16.54l-.65-2.19,1.3-.37s.77,2.26,2.72,2.26,4.45-4.27,4.45-4.27h2.45l.92,2.69c9.51,6.77,27.26,12.8,27.26,12.8Z"/><path class="cls-45" d="M212.08,196.31l-5.4,5.86-20,1.72-4.85-11.44s-3,9.23-2,13.07H222s1.34-2.19-.49-5.61Z"/><path class="cls-45" d="M62.05,203.94a23.43,23.43,0,0,1,14.7-3.6c8.6.79,10.92,4.27,10.92,4.27v4.09H61.38Z"/><path class="cls-46" d="M181.85,182.41a15.1,15.1,0,0,1,8.33-5.5l.27,5.1,1.1.18-.68,2.23S189,188.75,186.7,189s-3-2.53-3-2.53l-.21-2-.69-.7.45-.78Z"/><path class="cls-46" d="M75.35,184.42a12.12,12.12,0,0,1,8.55-2.84l-1,3.89,1.28.6-1.28,4.48a49.72,49.72,0,0,0-6.67-2.24l-.19-2.88Z"/><path class="cls-47" d="M119.82,26.45C119,28,121.93,30.2,124.15,30s3.47-4.76,2.63-6S121.19,23.66,119.82,26.45Z"/><path class="cls-47" d="M136.65,25.31c-.59-.94-3.35,2.47-3.47,3.65s1.12,2.84,2.13,2S137.35,26.4,136.65,25.31Z"/><path class="cls-48" d="M119.82,26.45a6,6,0,0,1,4.33-2.52c2.94-.27,2.89,1.14,2.89,1.14a1.9,1.9,0,0,0-1.89-2.21C122.9,22.56,120.18,25.51,119.82,26.45Z"/><path class="cls-48" d="M133.4,28.3s1.42-2.59,2.52-2.63.71,2.49.71,2.49.85-2.74-.16-3.3S133.4,28.3,133.4,28.3Z"/><path class="cls-49" d="M119.82,26.45a6.29,6.29,0,0,1,4.33-2.17c2.79-.18,2.91,1.08,2.91,1.08l1.42-.55A6.17,6.17,0,0,0,119.82,26.45Z"/><path class="cls-49" d="M133.4,28.3S134.71,26,135.81,26s.85,1.77.85,1.77l1-.61s-.46-1.52-1.65-1.52S133.4,28.3,133.4,28.3Z"/><path class="cls-50" d="M122,29.58s2.39-4.14,4.23-1.28C126.21,28.3,125.11,31.42,122,29.58Z"/><path class="cls-50" d="M133.4,30.16s1.87-2.59,2.56-.13c0,0-.58,1.34-1.42,1.14A1.79,1.79,0,0,1,133.4,30.16Z"/><path class="cls-51" d="M122,27.56A2,2,0,0,0,123.17,29,1.43,1.43,0,0,0,122,27.56Z"/><path class="cls-51" d="M133.78,29a1.2,1.2,0,0,0,.58,1.19S134.64,29.61,133.78,29Z"/><path class="cls-52" d="M125.12,34.45s-1,.83-1,1.29,1.71,1.44,1.71,1.44a5.64,5.64,0,0,0,5.39,2,2.84,2.84,0,0,1-2.77,1.44c-1.82-.31-3.3-3.47-3.3-3.47l-1.55-1.41A4.87,4.87,0,0,1,125.12,34.45Z"/><path class="cls-53" d="M124.1,36.47s1-.36,1.47,1.53Z"/><path class="cls-54" d="M125.12,34.45l1.09-1.27a6.28,6.28,0,0,1,1.23,3.47,10.14,10.14,0,0,0-1.38-2.47Z"/><path class="cls-55" d="M129.33,24.64l-1.61,13.17a3.67,3.67,0,0,0,3.53,1.4s2-8.77,1.92-14.4C133.17,24.81,130.66,24.75,129.33,24.64Z"/><path class="cls-56" d="M128.25,19.91s.82,11.09-4.88,10.47-3.55-8.44-3.55-8.44S125.1,18.4,128.25,19.91Z"/><path class="cls-57" d="M134.64,23.44s-2,4.45-1.47,7,3.47.36,3.47.36a34.59,34.59,0,0,1,.24-3.69c.19-1,1.92-5.14,1.92-5.14S137,21.26,134.64,23.44Z"/><path class="cls-58" d="M139.76,12.71l0,1.48h0c-.17.23-2.11,3.62-8,2.84-6.18-.82-10-6.17-12.29-5.37s-1.7,5.2-3.59,7.86,1.06,9.82,2.57,13.66,1.46,13.5,3.21,15.72a4.14,4.14,0,0,0,3.87,1.74,3.17,3.17,0,0,1-1.82.12c-2.81-.86-8.66-8.18-10.68-16-.33-1.31-.6-2.72-.83-4.18a10,10,0,0,0,.12-6.31c-1.29-3.66,1.39-10.19,1.39-10.19l1.88-6.22,7.63-2.13,16.41,6.87Z"/><path class="cls-59" d="M140.39,5.76h0l-1.1-.93h0l0,0a13.25,13.25,0,0,0-2.87-1.66c.32.07,3,.76,6.5,4.08,0,0,1.4-4.33-3.91-6.59s-13.4,2.93-23.36,5.19L120.25.26s-5.19-2.19-5.56,6.11a6,6,0,0,0-2.77,1.72l0,0a9.69,9.69,0,0,0-2,3.31,2,2,0,0,0-.07.26C108.4,16.25,112.73,27,112.73,27l.2-4.12s3.23-3.9,3.66-6c.1-.54.19-1.24.28-2a20.74,20.74,0,0,1,1-5.39,2,2,0,0,1,.27-.49,3.11,3.11,0,0,1,2-1.46l0,0c.13.12.68.68,1.55,1.46a39.42,39.42,0,0,0,3.1,2.5,31.43,31.43,0,0,0,6.36,3.68,7.73,7.73,0,0,0,5.51.52,5.11,5.11,0,0,0,2.58-1.93,13,13,0,0,0,4.9-2.44A14.85,14.85,0,0,0,140.39,5.76Zm-6.7,8.9a24.37,24.37,0,0,0,5.39-.88A5.46,5.46,0,0,1,133.69,14.66Z"/><path class="cls-60" d="M111.92,39.59s0,7.9,4.09,13.78c0,0,1.78-4.92,3.09-6.56,0,0-4.48-5.43-5.92-11.33Z"/><path class="cls-61" d="M136.68,15.66h0a7.73,7.73,0,0,1-5.51-.52,37.56,37.56,0,0,1-11-7.64l0,0a105,105,0,0,0,11,6.64C135.17,16,136.68,15.66,136.68,15.66Z"/><path class="cls-62" d="M133.69,14.66a24.07,24.07,0,0,1-6-3.17s8.47,2.35,16.43-.18C144.15,11.31,142.11,14.11,133.69,14.66Z"/><path class="cls-63" d="M142,7.46a16.77,16.77,0,0,1-9.32,1.77,23.67,23.67,0,0,1-8.78-2.86s10.83,6.08,16.31-.61Z"/><path class="cls-64" d="M142.87,7.22s-.12-4.18-3.78-5.77-11.37,1.47-11.37,1.47S137.66.81,142.87,7.22Z"/><path class="cls-65" d="M110.67,9.74s-1.65,2.89-.8,5.25,7.69-4.79,7.69-4.79-3.37,7.58-7.59,7.67C110,17.87,108.44,12.24,110.67,9.74Z"/><path class="cls-66" d="M110.76,21.11A15.91,15.91,0,0,0,117,13.8s-1.5,7.45-5.55,9.47Z"/><path class="cls-67" d="M105.28,67s2.39,8.39,8,12.05c0,0,6.28-6.11,6.78-14.36,0,0-1.72,9.1-6.78,13.77,0,0,.34-3.69-.84-5.26a8.61,8.61,0,0,1,.54,5.26S108.61,75.06,105.28,67Z"/><path class="cls-68" d="M89.26,98.78s5.85-10.52,7.5-20.64c0,0-1,14.32-7.71,24Z"/><path class="cls-69" d="M89.87,92.6A31.93,31.93,0,0,0,92,84.81c.43-3.84-11.25-17-11.25-17v1s9.12,10,9.48,15.18A34.28,34.28,0,0,1,89.87,92.6Z"/><path class="cls-70" d="M89.44,108.6s-6.68-1-14.73,3.5c0,0,6.6-6.09,15.83-4.9Z"/><path class="cls-71" d="M133.77,63.48S129.5,74,121.61,81.64a44.59,44.59,0,0,1-16.53,10.24A100.53,100.53,0,0,0,133.77,63.48Z"/><path class="cls-72" d="M120.23,55.45s5.81,3.1,9.29,3.63c0,0-5.18.73-8.62-1.07Z"/><path class="cls-73" d="M103.53,70.35l5-3.69,1.79-3.18,2,1.17-2-3.87S105.54,65.17,103.53,70.35Z"/><path class="cls-73" d="M113.18,64.65l1.91-1,6.51,4.13s-1.88-5-4.62-7.7Z"/><path class="cls-14" d="M131.25,83.45a44,44,0,0,0,5.49-9.38L136,87.13l-2.29-3.68Z"/><path class="cls-74" d="M151.29,83.47s-.88,1.72-1.36,6.68,3.6,11.56,3.6,11.56S142.92,91.13,149.9,81.5Z"/><path class="cls-14" d="M111.64,117.5s-7.38,2.6-5.73,11.29l2-1.39s1.26-4.33,3-5.5l.76.42Z"/><path class="cls-75" d="M100.24,127.75s.24-5.79,3.23-9.51c0,0-3.87,3.14-4.74,7.12,0,0-21.64-2.61-28.69-6.64,0,0,7.73,5.8,29.46,7.75Z"/><path class="cls-76" d="M82.63,71S76,95.82,76.51,105.06c0,0,8.54,0,12.38,1.77,0,0,.31-17.2,1.34-22.88A29.46,29.46,0,0,0,82.63,71Z"/><path class="cls-77" d="M80.75,67.82l7.5,7.08s5.22-3.62,7.78-6.75S99.69,58,99.69,58Z"/><path class="cls-14" d="M154.11,71s3.51,7.63,9.56,10.07c0,0,1.05-5.53.69-7.25s-2.72-4.35-2.72-4.35l1.93,4.58s-.14,3.66-1.85,3.18-5.73-6-5.73-6l.06-.89Z"/><path class="cls-78" d="M167.88,81s-4.39,7.45-6.6,7.64-7.17-6.67-7.17-6.67,4,7.18,6.19,8.37,5.08-1.7,5.08-1.7Z"/><path class="cls-79" d="M161,106.1S162,99,162.94,97C162.94,97,163.74,102.64,161,106.1Z"/><path class="cls-14" d="M70,104s10.57-3.61,18.92,0l.09-3.11s-6.51-5.43-18.52,0Z"/><path class="cls-14" d="M72.33,92.71s11.25-2.62,17.2,3.6l.34-3.71S82.16,86,73,90.15Z"/><path class="cls-14" d="M142.58,71.06s-7.37,5.12-8.48,13.12L136,87.13s2-9.5,8.35-13.57Z"/><path class="cls-14" d="M147.38,77.94s-6.5,4.56-7.1,14.9l3.15,3.47s-.82-10,5-16.9Z"/><path class="cls-80" d="M167.88,81s-4.16,7.24-6.6,7.64a3.55,3.55,0,0,0,4.1,0Z"/><path class="cls-81" d="M90.54,182a20,20,0,0,0-1-5.14l-.08-.24a9,9,0,0,0-.38-.84.08.08,0,0,0,0,0h0a4.23,4.23,0,0,0-3-2.62c-4.16-.61-12.21,6.84-12.21,6.84-1.58-17.33,2.44-61,6.92-62.89a18.05,18.05,0,0,1,8.15-1.56c4.94,4.61,5.42,17.72,5.42,17.72-3,7.8-3.91,21-4.06,31.75C90.12,173.79,90.48,180.93,90.54,182Z"/><path class="cls-82" d="M90.54,182.07a.51.51,0,0,1,0,.09.28.28,0,0,0,0-.06A0,0,0,0,0,90.54,182.07Z"/><path class="cls-83" d="M89,175.76s-2.59-46.12-1.37-57.52c0,0,.43,32.69,2.56,45.62l.31,18.3S89.93,177.13,89,175.76Z"/><path class="cls-84" d="M80.74,117.08C77.63,131.54,73.82,180,73.82,180,72.24,162.64,76.26,119,80.74,117.08Z"/><path class="cls-85" d="M195,160.63s-12.63-10.8-17.57-45C177.46,115.61,182.58,141.78,195,160.63Z"/><path class="cls-86" d="M181.3,176.91l-6.36-58.67s8.28,37.65,13.23,48C188.17,166.27,182.22,171.23,181.3,176.91Z"/><path class="cls-14" d="M168.71,148.52l5.79-38.16-7.62,28.77A70.05,70.05,0,0,0,168.71,148.52Z"/><path class="cls-60" d="M76.29,180.39l6.43-2.78.18-3.89a26.47,26.47,0,0,0-6.82,4.33Z"/><path class="cls-60" d="M182.13,178.21l5.11-5.2-1.2-4.66a24.68,24.68,0,0,0-4.49,7.9Z"/><path class="cls-87" d="M117.84,9.42a20.74,20.74,0,0,0-1,5.39,5.49,5.49,0,0,1-1.26-.15,10.76,10.76,0,0,1-5.81-3,2,2,0,0,1,.07-.26,9.69,9.69,0,0,1,2-3.31l0,0a3.09,3.09,0,0,0,3.14,2.26A8.08,8.08,0,0,0,117.84,9.42Z"/><path class="cls-88" d="M140.38,5.75a6,6,0,0,0-4.21,0c-2.15.88-4.74,1.68-6.8,2.3-.9.27-2.53,1.84-4.57,3.41A39.42,39.42,0,0,1,121.7,9c.33.06.69.15,1.07.25,4.36,1.26,4-1.29,7.39-1.75s4.74-4,5.8-4.08,3,1.26,3.29,1.41l0,0h0Z"/><path class="cls-89" d="M222,205.53H179.87c-.4-7.81,3.18-16.54,3.18-16.54l-.65-2.19,1.3-.37s.77,2.26,2.72,2.26,4.45-4.27,4.45-4.27h2.45l.92,2.69c-4.19.48-9.84,6.46-9.84,6.46s.93,7.32,10.08,7.35,27-1,27-1Z"/><path class="cls-90" d="M87.67,204.61v4.08H61.38l.67-4.75S76.26,206.08,87.67,204.61Z"/><path class="cls-91" d="M84.93,197.67s-1.59-3.25-4.19-4.16-6.92-.49-6.92-.49.18-4.27,1.59-4.7S83,190.55,83,190.55l-.06-1.28,1,.34s.49,3.35.73,6.4A9.54,9.54,0,0,0,84.93,197.67Z"/><polygon class="cls-92" points="190.45 182.01 184.39 183.93 191.55 182.19 190.45 182.01"/><polygon class="cls-93" points="183.25 182.94 186.7 182.01 182.8 183.72 183.25 182.94"/><polygon class="cls-94" points="82.94 185.47 76.54 186.39 84.22 186.07 82.94 185.47"/><path class="cls-95" d="M80.74,117.08s2.05,1.34,3.51,1.16,4.64-2.72,4.64-2.72A20.74,20.74,0,0,0,80.74,117.08Z"/><path class="cls-31" d="M73.82,180s3.18-44.56,6.93-48.69S89,175.76,89,175.76,86.76,165.81,73.82,180Z"/><path class="cls-17" d="M74,176.24,73.6,176l.38-.72.06,0c.37-.22,9.21-5.42,12.26-4.74s4.31,5,4.36,5.2l-.49.13s-1.17-4.21-4-4.84-11,4.18-11.85,4.65Z"/><path class="cls-17" d="M179.56,173.36l-.33-.38c.06-.06,5.94-5.12,6.77-9.38.88-4.52,7.51-5.1,7.79-5.12l0,.49c-.06,0-6.53.57-7.34,4.73C185.63,168.12,179.81,173.14,179.56,173.36Z"/><path class="cls-96" d="M148.42,46.14l2.23-.45,1,1.84a9.35,9.35,0,0,0-3.31-.13Z"/><path class="cls-97" d="M142.74,53.18a34.55,34.55,0,0,1,9.56-3.66S148.06,49.31,142.74,53.18Z"/><path class="cls-98" d="M148,56.2l.9,1.4s1.71-1.69,1.08-2.15S148,56.2,148,56.2Z"/><path class="cls-98" d="M143.2,53.18a3.14,3.14,0,0,0,1.57,1.37S146.55,51.85,143.2,53.18Z"/><path class="cls-98" d="M140.28,50.86s-.2.8.81,2C141.09,52.85,145.41,49.27,140.28,50.86Z"/><path class="cls-98" d="M141,44.36a6.47,6.47,0,0,0,.75,2.7s1.46-.75,1.33-1.85S141,44.36,141,44.36Z"/><path class="cls-99" d="M141.55,47.81l1.65.64,5.16-1.05,2.29-1.71-.33-.82A23,23,0,0,0,141.55,47.81Z"/><path class="cls-99" d="M141.23,53.76l1.56-.08s.56,1.88,1.58,2.31l4.93-1.14L153,53.13s-3.06-.28-8.47,1.85a2.52,2.52,0,0,1-1.78-1.8Z"/><polygon class="cls-99" points="148.91 58.06 150.96 58.37 150.83 57.67 148.91 58.06"/><path class="cls-14" d="M89.05,102.16s5,2.28,18.85-2.47,18-5.75,18-5.75l-2,5.48s-8-.66-18.27,4.56-16.76,2.29-16.76,2.29Z"/><path class="cls-14" d="M91,110.36s3.14,1.1,14-.79,16.8-2.74,16.8-2.74l-1,3.85a106.91,106.91,0,0,0-15.84,2.12c-8.8,1.84-10,1-10,1S91.74,111.11,91,110.36Z"/><polygon class="cls-100" points="94.32 141.57 149.57 141.57 165.5 144.33 114.13 145.51 94.32 141.57"/><path class="cls-101" d="M114.83,147.19,117,113s31-5.87,57.94-3.21L165,146.26Z"/><polygon class="cls-102" points="117 113.04 115.67 113.04 114.13 145.51 94.32 141.57 94.32 147.27 114.83 147.19 117 113.04"/><path class="cls-100" d="M115.67,113s30.76-6.85,59.27-3.21A281,281,0,0,0,117,113.36Z"/><path class="cls-51" d="M157.42,109.61s1.05,3.52,3.08,3.87,4.07-3.87,4.07-3.87Z"/><path class="cls-51" d="M160.93,114.94c-1.26-.39-1.3.31-.32.72S162.05,115.29,160.93,114.94Z"/><circle class="cls-103" cx="144.19" cy="126.15" r="11.48" transform="translate(-3.5 248.19) rotate(-80.75)"/><path class="cls-51" d="M150.39,123.76c.3.72-2.17,2.45-5.53,3.86s-6.32,2-6.62,1.25,2.17-2.45,5.53-3.86S150.09,123.05,150.39,123.76Z"/><path class="cls-14" d="M133.68,83.45S146.3,102.13,161,106.1C161,106.1,146,105,133.68,83.45Z"/><path class="cls-104" d="M128,26.75a4.18,4.18,0,0,0-1.71-1,18.76,18.76,0,0,0-1.95-.54,25.86,25.86,0,0,0-4-.57,8.63,8.63,0,0,0-2,0,1.33,1.33,0,0,0-1.26,1,5.56,5.56,0,0,0,.62,3.76,7.28,7.28,0,0,0,2.68,2.88,5.29,5.29,0,0,0,3.77.83,3.65,3.65,0,0,0,1.72-.94,5.73,5.73,0,0,0,1.21-1.59,8.48,8.48,0,0,0,.75-1.88A4.1,4.1,0,0,0,128,26.75Zm0,0a4.23,4.23,0,0,1-.13,2,8.87,8.87,0,0,1-.71,1.92,5.89,5.89,0,0,1-1.18,1.67,3.84,3.84,0,0,1-1.78,1,5.53,5.53,0,0,1-4-.79,7.7,7.7,0,0,1-2.86-3,6,6,0,0,1-.75-4.09,1.92,1.92,0,0,1,.6-1,2.14,2.14,0,0,1,1.06-.42,9.14,9.14,0,0,1,2.09,0,19.63,19.63,0,0,1,4,.81,18.44,18.44,0,0,1,1.93.69A4.07,4.07,0,0,1,128.07,26.72Z"/><path class="cls-104" d="M141.38,28.27a3.72,3.72,0,0,0-1.54-.86A10.64,10.64,0,0,0,138.1,27a9.09,9.09,0,0,0-3.49,0,1.36,1.36,0,0,0-.68.33,2.64,2.64,0,0,0-.41.7,8.52,8.52,0,0,0-.47,1.68,8.16,8.16,0,0,0,.06,3.48,4,4,0,0,0,.78,1.51,3,3,0,0,0,1.46.82,3.36,3.36,0,0,0,3.16-1,9,9,0,0,0,2.05-2.89,11.43,11.43,0,0,0,.65-1.68A3.64,3.64,0,0,0,141.38,28.27Zm0,0a3.52,3.52,0,0,1-.16,1.79,14.42,14.42,0,0,1-.6,1.71,9.09,9.09,0,0,1-2,3,4.38,4.38,0,0,1-1.55,1,4.71,4.71,0,0,1-.92.2,4.13,4.13,0,0,1-.93-.09,3.24,3.24,0,0,1-1.65-.9,4.14,4.14,0,0,1-.9-1.64,8.63,8.63,0,0,1-.17-3.68,9.76,9.76,0,0,1,.5-1.79,3.1,3.1,0,0,1,.51-.84,2,2,0,0,1,.91-.48,8.55,8.55,0,0,1,3.67.19,12.85,12.85,0,0,1,1.73.54A3.73,3.73,0,0,1,141.42,28.24Z"/><path class="cls-104" d="M133,28.49c-1.78-1.6-4.75-.62-4.79-.61l-.16-.47c.14-.05,3.29-1.09,5.29.71Z"/><rect class="cls-104" x="113.91" y="20.45" width="0.5" height="6.95" transform="translate(67.06 130.63) rotate(-78.02)"/><path class="cls-105" d="M134.64,34.81s2.52-1.5,3.77-1.06C138.41,33.75,137.84,36.19,134.64,34.81Z"/><path class="cls-105" d="M120.23,31.63a31.06,31.06,0,0,1,5.61,0S124.41,34.11,120.23,31.63Z"/><path class="cls-51" d="M133.32,27.91l.8-1S133.28,26.87,133.32,27.91Z"/><path class="cls-51" d="M117,25.38s.66-.91,1.34-1A1.1,1.1,0,0,0,117,25.38Z"/><path class="cls-60" d="M128.45,49.15a11.45,11.45,0,0,1-2.88,1.48l-.09,0a3.17,3.17,0,0,1-1.82.12c-2.81-.86-8.66-8.18-10.68-16-.14-.55-.27-1.11-.38-1.69.29.73,4.93,12.59,8.6,15.09A7.7,7.7,0,0,0,128.45,49.15Z"/></g></g></g></svg>